<?xml version="1.0" encoding="UTF-8"?>
<!DOCTYPE svg PUBLIC "-//W3C//DTD SVG 1.1//EN" "http://www.w3.org/Graphics/SVG/1.1/DTD/svg11.dtd">
<!-- Creator: CorelDRAW -->
<svg xmlns="http://www.w3.org/2000/svg" xml:space="preserve" width="25.4mm" height="25.4mm" version="1.1" style="shape-rendering:geometricPrecision; text-rendering:geometricPrecision; image-rendering:optimizeQuality; fill-rule:evenodd; clip-rule:evenodd"
viewBox="0 0 2540 2540"
 xmlns:xlink="http://www.w3.org/1999/xlink"
 xmlns:xodm="http://www.corel.com/coreldraw/odm/2003">
 <defs>
  <style type="text/css">
   <![CDATA[
    .str0 {stroke:black;stroke-width:7.62;stroke-miterlimit:22.9256}
    .fil0 {fill:white;fill-rule:nonzero}
   ]]>
  </style>
 </defs>
 <g id="Слой_x0020_1">
  <metadata id="CorelCorpID_0Corel-Layer"/>
  <path class="fil0 str0" d="M678.96 2117.78l0 158.43c0,65.2 52.94,118.15 118.21,118.15l945.66 0.06c65.27,-0.06 118.21,-53.01 118.21,-118.28l0 -158.42c365.57,-210.9 591.02,-601.4 591.02,-1023.6 0,-65.27 -52.95,-118.22 -118.22,-118.22 -4.42,-147.1 -85.04,-281.53 -212.78,-354.64 -31.02,-212.44 -213.37,-370 -428.09,-370 -0.34,0 -0.67,0 -1.01,0 -0.26,0 -0.6,0 -0.8,0 -39.61,0 -79.15,5.23 -117.41,15.35 -81.36,-77.54 -189.59,-120.96 -302.04,-120.96 -112.39,0 -220.62,43.42 -301.91,121.03 -38.26,-10.19 -77.8,-15.42 -117.41,-15.42 -0.2,0 -0.53,0 -0.8,0 -1.07,0 -2.21,0 -3.35,0 -214.72,0 -397.07,157.56 -428.1,370 -128.2,72.78 -209.36,207.28 -213.98,354.64 -65.27,0 -118.22,52.95 -118.22,118.22 0,422.2 225.31,812.56 590.95,1023.73l0.07 -0.07zm-105.22 -1306.2l98.11 -24.79 -18.9 -106.36c1.28,-106.15 87.73,-191.53 193.88,-191.53 0.8,0 1.61,0 2.35,0 0.46,0 0.87,0 1.27,0 33.71,0 67.01,8.11 96.9,23.66l95.77 53.21 59.11 -91.01c37.46,-55.96 100.45,-89.53 167.74,-89.53 67.35,0 130.34,33.57 167.87,89.46l59.11 91.01 95.76 -53.21c29.83,-15.48 63.13,-23.59 96.84,-23.59 0.4,0 0.81,0 1.21,0 0.8,0 1.67,0 2.48,0 105.41,0 191.73,83.77 194.95,189.12l-18.9 100.46 96.9 33.1c73.18,22.85 125.19,87.93 131.29,164.32l-1654.96 0c6.1,-76.39 58.11,-141.47 131.22,-164.32l0 0zm1634.78 400.75c-40.01,314.04 -235.09,587.66 -518.97,728 -39.87,20.17 -65,61.05 -65,105.68 0,0.27 0,0.54 0,0.8l0.06 111.18 -709.29 0 0 -111.11c0.13,-0.33 0.13,-0.6 0.13,-0.87 0,-44.63 -25.13,-85.51 -65,-105.55 -283.88,-140.47 -478.96,-414.09 -518.9,-728.19l1876.97 0.06z"/>
 </g>
</svg>
