<?xml version="1.0" standalone="no"?>
<!DOCTYPE svg PUBLIC "-//W3C//DTD SVG 20010904//EN"
 "http://www.w3.org/TR/2001/REC-SVG-20010904/DTD/svg10.dtd">
<svg version="1.0" xmlns="http://www.w3.org/2000/svg"
 width="512.000000pt" height="512.000000pt" viewBox="0 0 512.000000 512.000000"
 preserveAspectRatio="xMidYMid meet">

<g transform="translate(0.000000,512.000000) scale(0.100000,-0.100000)"
fill="#fff" stroke="none">
<path d="M3462 4900 c-221 -121 -422 -233 -446 -250 -86 -59 -152 -160 -175
-268 -6 -29 -11 -114 -11 -187 l0 -135 -49 0 c-55 0 -54 0 -66 80 -15 97 -74
235 -145 340 -52 77 -184 199 -267 249 -153 91 -304 127 -494 118 -142 -6
-209 -23 -328 -78 -617 -288 -683 -1137 -117 -1522 113 -77 260 -131 393 -144
49 -5 53 -8 53 -32 0 -14 29 -649 64 -1411 l63 -1385 30 -65 c32 -70 96 -141
152 -170 79 -40 120 -41 826 -38 l680 3 62 29 c94 43 165 125 192 221 7 23 43
730 86 1665 l74 1625 36 29 c56 45 68 77 73 201 6 165 -18 228 -102 266 -38
17 -76 19 -543 19 l-503 0 0 148 c0 134 2 152 24 198 13 28 39 66 58 84 19 18
218 133 443 256 226 123 418 233 428 245 9 12 17 32 17 46 0 31 -51 83 -82 83
-13 0 -204 -99 -426 -220z m-1427 -236 c245 -65 443 -266 506 -512 10 -41 19
-79 19 -84 0 -4 -139 -8 -309 -8 l-309 0 -4 196 -3 196 -28 24 c-37 32 -77 31
-111 -2 l-26 -27 0 -193 0 -194 -186 0 c-187 0 -215 -4 -241 -39 -16 -21 -16
-72 1 -93 24 -32 66 -38 247 -38 l179 0 0 -185 c0 -201 5 -226 52 -246 74 -30
118 28 118 156 l0 80 115 -172 c63 -95 115 -175 115 -178 0 -2 -17 -13 -37
-24 -116 -58 -324 -72 -469 -32 -323 89 -542 397 -521 731 8 110 30 189 81
286 103 196 291 334 514 374 65 12 225 4 297 -16z m1943 -866 l-3 -93 -920 0
-920 0 -63 93 -63 92 986 0 986 0 -3 -92z m-111 -385 c-4 -71 -12 -253 -18
-405 l-12 -278 -418 0 -418 0 -3 286 -3 286 -28 24 c-31 26 -54 30 -90 13 -44
-20 -47 -44 -47 -334 l0 -275 -419 0 -418 0 -7 128 c-3 70 -7 153 -8 186 l-2
58 91 23 c99 25 222 81 274 124 51 43 46 76 -29 188 -34 51 -62 95 -62 98 0 3
365 5 812 5 l811 0 -6 -127z m-1035 -1927 c3 -1030 4 -1085 21 -1104 40 -44
116 -28 136 28 8 24 11 329 11 1096 l0 1064 409 0 c226 0 412 -3 414 -8 6 -8
-90 -2174 -99 -2239 -7 -54 -40 -102 -89 -130 l-40 -23 -678 0 c-550 0 -684 3
-710 14 -42 17 -83 66 -97 114 -7 26 -110 2134 -110 2260 0 9 90 12 415 12
l415 0 2 -1084z"/>
<path d="M2260 2367 c-32 -16 -52 -59 -44 -91 22 -91 158 -75 158 19 0 60 -62
99 -114 72z"/>
<path d="M3319 2365 c-29 -16 -47 -56 -41 -91 9 -60 97 -79 138 -30 30 34 30
68 2 100 -29 32 -66 40 -99 21z"/>
<path d="M2505 2085 c-31 -30 -32 -73 -4 -109 45 -57 139 -19 139 56 0 39 -40
78 -80 78 -19 0 -40 -9 -55 -25z"/>
<path d="M3402 2013 c-21 -8 -44 -63 -38 -89 21 -82 130 -84 159 -1 8 22 -8
66 -31 83 -17 13 -65 17 -90 7z"/>
</g>
</svg>
