<?xml version="1.0" standalone="no"?>
<!DOCTYPE svg PUBLIC "-//W3C//DTD SVG 20010904//EN"
 "http://www.w3.org/TR/2001/REC-SVG-20010904/DTD/svg10.dtd">
<svg version="1.0" xmlns="http://www.w3.org/2000/svg"
 width="512.000000pt" height="512.000000pt" viewBox="0 0 512.000000 512.000000"
 preserveAspectRatio="xMidYMid meet">

<g transform="translate(0.000000,512.000000) scale(0.100000,-0.100000)"
fill="#fff" stroke="none">
<path d="M3500 4965 c-294 -84 -554 -163 -578 -176 -61 -32 -137 -118 -161
-184 -19 -51 -21 -77 -21 -300 l0 -245 -643 0 c-715 0 -717 0 -813 -65 -88
-60 -137 -147 -149 -262 -12 -120 -156 -3370 -151 -3421 11 -115 85 -221 194
-274 l67 -33 1010 -3 c1052 -3 1075 -3 1156 39 51 26 129 106 151 156 10 23
22 63 27 90 7 34 -14 565 -69 1768 -74 1634 -79 1723 -100 1777 -30 81 -102
157 -182 193 -57 26 -76 29 -201 33 l-139 5 4 236 c2 176 6 242 17 261 22 41
54 71 91 86 19 9 271 83 560 165 444 127 528 154 548 175 24 28 27 51 11 87
-12 26 -48 47 -77 46 -9 0 -258 -69 -552 -154z m-321 -1095 c47 -24 78 -60 90
-109 13 -48 165 -3411 157 -3456 -8 -43 -59 -103 -103 -121 -26 -12 -216 -14
-1039 -14 l-1007 0 -41 24 c-63 37 -86 86 -86 187 0 168 150 3367 159 3391 14
37 62 89 96 104 24 11 196 13 883 14 829 0 854 -1 891 -20z"/>
<path d="M2658 2990 c-77 -13 -143 -39 -205 -79 -55 -36 -126 -104 -152 -147
-11 -18 -12 -18 -29 6 -40 59 -118 130 -149 136 -27 5 -37 1 -63 -24 -43 -44
-39 -70 21 -139 73 -84 103 -149 118 -259 l8 -56 -36 7 c-128 25 -210 32 -265
24 -239 -39 -406 -284 -406 -596 1 -385 252 -744 556 -795 59 -10 84 -9 152 5
75 15 87 15 167 0 72 -14 94 -15 145 -5 264 55 462 277 536 602 24 104 24 303
0 390 -61 225 -214 380 -392 397 -35 3 -64 9 -64 14 0 4 13 17 30 29 45 32
116 138 146 216 31 83 43 203 24 239 -7 13 -26 29 -43 35 -33 11 -32 11 -99 0z
m-28 -191 c0 -29 -59 -125 -100 -163 -47 -44 -127 -92 -137 -82 -10 10 19 75
57 128 55 77 180 159 180 117z m-563 -514 c143 -28 263 -30 407 -5 178 31 241
17 319 -69 84 -94 122 -218 114 -381 -9 -197 -72 -347 -196 -471 -105 -104
-150 -125 -266 -121 -173 6 -230 6 -296 -2 -83 -11 -145 8 -227 68 -215 158
-315 521 -216 781 48 125 149 212 251 214 17 1 67 -6 110 -14z"/>
</g>
</svg>
