<?xml version="1.0" encoding="UTF-8"?>
<!DOCTYPE svg PUBLIC "-//W3C//DTD SVG 1.1//EN" "http://www.w3.org/Graphics/SVG/1.1/DTD/svg11.dtd">
<!-- Creator: CorelDRAW -->
<svg xmlns="http://www.w3.org/2000/svg" xml:space="preserve" width="25.4mm" height="25.4mm" version="1.1" style="shape-rendering:geometricPrecision; text-rendering:geometricPrecision; image-rendering:optimizeQuality; fill-rule:evenodd; clip-rule:evenodd"
viewBox="0 0 2540 2540"
 xmlns:xlink="http://www.w3.org/1999/xlink"
 xmlns:xodm="http://www.corel.com/coreldraw/odm/2003">
 <defs>
  <style type="text/css">
   <![CDATA[
    .str0 {stroke:black;stroke-width:7.62;stroke-miterlimit:22.9256}
    .fil0 {fill:white;fill-rule:nonzero}
   ]]>
  </style>
 </defs>
 <g id="Слой_x0020_1">
  <metadata id="CorelCorpID_0Corel-Layer"/>
  <g id="_2019825214736">
   <g>
    <path class="fil0 str0" d="M1700.53 166.79c-134.86,38.53 -254.12,74.77 -265.13,80.73 -27.98,14.68 -62.85,54.13 -73.85,84.4 -8.72,23.39 -9.64,35.32 -9.64,137.61l0 112.38 -294.94 0c-327.98,0 -328.89,0 -372.93,29.82 -40.36,27.52 -62.84,67.43 -68.35,120.18 -5.5,55.05 -71.55,1545.84 -69.26,1569.23 5.05,52.75 38.99,101.37 88.99,125.68l30.73 15.14 463.29 1.38c482.56,1.37 493.11,1.37 530.27,-17.89 23.39,-11.93 59.17,-48.62 69.26,-71.56 4.59,-10.55 10.09,-28.9 12.39,-41.28 3.21,-15.6 -6.43,-259.17 -31.66,-810.99 -33.94,-749.52 -36.23,-790.35 -45.87,-815.12 -13.76,-37.15 -46.78,-72.02 -83.48,-88.53 -26.15,-11.92 -34.86,-13.3 -92.2,-15.14l-63.76 -2.29 1.83 -108.25c0.92,-80.74 2.76,-111.01 7.8,-119.73 10.09,-18.8 24.77,-32.56 41.74,-39.45 8.72,-4.12 124.31,-38.07 256.88,-75.68 203.66,-58.26 242.2,-70.64 251.37,-80.27 11.01,-12.85 12.38,-23.4 5.05,-39.91 -5.51,-11.93 -22.02,-21.56 -35.32,-21.1 -4.13,0 -118.35,31.65 -253.21,70.64l0 0zm-147.24 502.28c21.55,11.01 35.77,27.52 41.28,50 5.96,22.01 75.68,1564.64 72.02,1585.28 -3.67,19.72 -27.07,47.24 -47.25,55.5 -11.93,5.51 -99.08,6.42 -476.6,6.42l-461.91 0 -18.81 -11.01c-28.9,-16.97 -39.45,-39.44 -39.45,-85.77 0,-77.07 68.81,-1544.46 72.94,-1555.47 6.42,-16.97 28.44,-40.82 44.03,-47.7 11.01,-5.05 89.91,-5.97 405.04,-6.43 380.27,0 391.73,0.46 408.71,9.18l0 0z"/>
    <path class="fil0 str0" d="M1314.3 1072.73c-35.32,5.96 -65.59,17.89 -94.03,36.23 -25.23,16.52 -57.8,47.71 -69.73,67.43 -5.04,8.26 -5.5,8.26 -13.3,-2.75 -18.35,-27.06 -54.13,-59.63 -68.35,-62.38 -12.38,-2.3 -16.97,-0.46 -28.89,11.01 -19.73,20.18 -17.89,32.11 9.63,63.76 33.48,38.53 47.24,68.34 54.13,118.8l3.66 25.69 -16.51 -3.21c-58.71,-11.47 -96.33,-14.68 -121.56,-11.01 -109.63,17.89 -186.23,130.27 -186.23,273.39 0.46,176.6 115.59,341.27 255.04,364.67 27.06,4.58 38.53,4.12 69.72,-2.3 34.4,-6.88 39.91,-6.88 76.61,0 33.02,6.42 43.11,6.88 66.51,2.3 121.1,-25.23 211.92,-127.06 245.86,-276.14 11.01,-47.71 11.01,-138.99 0,-178.9 -27.98,-103.21 -98.16,-174.31 -179.81,-182.1 -16.05,-1.38 -29.36,-4.13 -29.36,-6.43 0,-1.83 5.97,-7.79 13.77,-13.3 20.64,-14.68 53.2,-63.3 66.97,-99.08 14.22,-38.07 19.72,-93.12 11.01,-109.63 -3.21,-5.96 -11.93,-13.3 -19.73,-16.05 -15.14,-5.05 -14.68,-5.05 -45.41,0l0 0zm-12.84 87.61c0,13.3 -27.07,57.34 -45.87,74.77 -21.56,20.18 -58.26,42.2 -62.85,37.61 -4.58,-4.58 8.72,-34.4 26.15,-58.71 25.23,-35.32 82.57,-72.94 82.57,-53.67l0 0zm-258.25 235.77c65.59,12.85 120.64,13.76 186.69,2.3 81.65,-14.22 110.55,-7.8 146.33,31.65 38.53,43.12 55.96,100 52.29,174.76 -4.13,90.37 -33.03,159.18 -89.91,216.05 -48.16,47.71 -68.8,57.34 -122.01,55.51 -79.36,-2.76 -105.5,-2.76 -135.78,0.91 -38.07,5.05 -66.51,-3.66 -104.12,-31.19 -98.63,-72.47 -144.5,-238.98 -99.08,-358.24 22.01,-57.34 68.34,-97.25 115.13,-98.17 7.8,-0.46 30.73,2.76 50.46,6.43l0 -0.01z"/>
   </g>
  </g>
 </g>
</svg>
