<?xml version="1.0" encoding="UTF-8"?>
<!DOCTYPE svg PUBLIC "-//W3C//DTD SVG 1.1//EN" "http://www.w3.org/Graphics/SVG/1.1/DTD/svg11.dtd">
<!-- Creator: CorelDRAW -->
<svg xmlns="http://www.w3.org/2000/svg" xml:space="preserve" width="25.4mm" height="25.4mm" version="1.1" style="shape-rendering:geometricPrecision; text-rendering:geometricPrecision; image-rendering:optimizeQuality; fill-rule:evenodd; clip-rule:evenodd"
viewBox="0 0 2540 2540"
 xmlns:xlink="http://www.w3.org/1999/xlink"
 xmlns:xodm="http://www.corel.com/coreldraw/odm/2003">
 <defs>
  <style type="text/css">
   <![CDATA[
    .str0 {stroke:white;stroke-width:42.33;stroke-miterlimit:22.9256}
    .fil1 {fill:none;fill-rule:nonzero}
    .fil0 {fill:white;fill-rule:nonzero}
   ]]>
  </style>
 </defs>
 <g id="Слой_x0020_1">
  <metadata id="CorelCorpID_0Corel-Layer"/>
  <g id="_2019329864912">
   <g id="_3083935879488">
    <g>
     <path class="fil0" d="M683.75 828.36c-80.95,12.83 -153.06,25.65 -160.58,28.75 -22.56,9.29 -47.77,38.49 -56.18,64.59 -6.63,21.23 -6.63,28.31 -1.76,65.02 3.09,22.12 6.63,46.01 7.96,52.2l2.21 11.5 -46.01 2.21c-63.69,3.1 -89.79,13.72 -127.84,51.76 -21.23,21.23 -31.85,36.27 -39.81,55.73l-10.61 26.55 0 238.87c0,231.79 0.44,240.19 10.17,288.85 13.71,68.57 31.85,121.65 63.26,184.46 33.61,67.68 74.75,125.63 127.84,179.16 49.98,50.43 83.6,76.97 145.97,113.68l46.45 27.87 -187.56 0c-134.03,0 -192.42,1.33 -205.69,5.31 -38.04,11.5 -73.43,60.16 -73.43,100.86 0,40.69 35.39,89.35 73.43,100.85 14.15,3.98 217.19,5.31 882.94,5.31 975.39,0 890.45,3.1 924.96,-35.39 39.81,-44.23 39.81,-97.32 0,-141.55 -31.85,-35.39 -31.41,-35.39 -248.61,-35.39l-188.44 0 47.78 -28.31c117.22,-69.89 210.56,-168.98 269.39,-286.2l23.44 -46.45 40.7 -10.18c55.74,-13.71 134.92,-53.52 181.81,-91.12 97.76,-78.74 160.13,-186.67 180.48,-311.86 20.79,-126.51 -22.12,-212.77 -121.21,-243.29 -24.77,-7.52 -41.13,-8.85 -128.72,-8.85l-100.86 0 -5.75 -19.02c-18.58,-62.82 -79.18,-113.24 -146.42,-121.21l-20.79 -2.21 -2.21 -22.12c-3.09,-25.65 -19.9,-56.62 -37.6,-69.45 -29.19,-20.79 -282.66,-147.3 -303.45,-151.72 -18.14,-3.98 -27.43,-3.54 -47.78,2.65 -35.39,10.18 -54.41,30.08 -87.58,92.45l-27.43 52.64 -8.41 -17.25c-9.73,-20.79 -15.03,-27.42 -34.94,-42.02 -29.64,-22.56 -41.58,-23 -192.42,-7.96 -75.2,7.07 -138.46,13.27 -140.23,13.27 -2.21,0 -3.54,-3.54 -3.54,-7.97 0,-14.59 -22.56,-53.08 -37.6,-65.02 -19.9,-15.04 -47.77,-24.33 -70.33,-23.89 -9.73,0.44 -84.05,11.06 -165,23.89l0 0zm184.46 50.87c4.87,2.65 10.62,8.4 13.27,12.83 3.98,7.96 26.54,137.13 26.54,152.61 0,6.19 -20.35,7.08 -180.48,7.08l-180.92 0 -7.96 -53.09c-7.08,-49.1 -7.08,-53.96 -0.45,-64.14 8.85,-13.71 3.1,-12.38 163.23,-37.6 147.75,-23.44 154.83,-23.88 166.77,-17.69zm751.12 62.81c72.1,37.16 135.8,71.66 141.55,77.41 5.31,5.31 9.73,15.04 9.73,21.24l0 11.06 -201.27 0c-110.59,0 -201.27,-0.89 -201.27,-2.22 0,-1.32 18.13,-36.71 39.81,-78.73 40.25,-76.09 54.85,-96 71.22,-96 4.42,0 67.68,30.08 140.23,67.24l0 0zm-372.91 7.97c15.04,5.75 22.56,24.77 26.1,67.68l3.1 34.06 -147.31 -0.89 -147.3 -1.32 -5.75 -36.72c-3.54,-20.35 -4.87,-38.04 -3.98,-39.37 1.77,-1.77 217.19,-24.77 256.12,-27.43 3.98,0 12.38,1.33 19.02,3.99l0 0zm650.7 188c13.27,8.4 26.55,21.67 34.95,34.94l13.27 21.68 1.33 118.99 1.32 118.55 -14.15 26.54c-17.25,32.29 -45.12,58.83 -78.3,74.32 -21.68,10.17 -30.96,11.94 -65.03,11.94 -34.5,0 -43.35,-1.77 -67.23,-12.83 -38.93,-17.69 -58.39,-40.7 -115.9,-137.57 -27.87,-46.45 -55.74,-89.8 -61.93,-96.43 -19.02,-20.79 -43.79,-31.41 -73.43,-31.41 -33.62,0 -45.56,6.19 -99.09,53.52 -66.35,58.39 -132.26,85.38 -207.46,85.38 -59.72,-0.45 -133.15,-27.87 -182.25,-68.57 -34.5,-28.75 -50.43,-34.94 -84.05,-34.94 -32.29,0 -55.73,9.73 -75.64,31.4 -6.64,6.64 -40.26,55.3 -74.76,107.5 -34.5,52.19 -67.24,99.97 -72.54,105.28 -4.87,5.75 -19.03,15.92 -31.41,22.11 -18.14,9.74 -28.31,11.95 -55.3,11.95 -56.17,0 -63.25,-5.75 -175.17,-142.44l-95.55 -116.78 1.77 -62.81c1.33,-59.28 2.22,-64.15 13.72,-83.61 13.27,-22.56 30.96,-37.16 55.73,-46 12.83,-4.87 157.48,-5.75 750.68,-4.87l734.75 0.89 21.67 13.27 0 0zm337.96 135.36c57.51,25.65 75.65,76.52 60.16,165.88 -25.21,144.65 -122.53,268.07 -255.68,322.92 -44.23,17.69 -49.98,18.58 -46,4.86 1.32,-5.3 5.3,-22.56 8.4,-38.04 5.31,-27.42 5.75,-28.31 27.43,-38.93 105.72,-53.96 178.71,-152.17 196.4,-265.41 7.52,-50.43 6.64,-66.35 -6.19,-78.74 -10.62,-11.05 -10.62,-11.05 -106.17,-11.05l-95.1 0 0 -35.39 0 -35.39 98.64 0c89.36,0 99.97,0.89 118.11,9.29l0 0zm-751.11 66.35c6.63,2.65 30.96,38.93 67.68,99.97 64.14,106.17 82.27,126.96 134.91,153.5 40.26,19.9 72.55,26.54 119.44,23.44 42.91,-2.21 77.41,-13.71 111.47,-36.71 12.39,-8.41 24.77,-16.81 26.98,-18.14 7.08,-4.42 0.45,97.32 -9.73,147.75 -24.33,118.99 -79.62,224.27 -164.11,312.3 -91.13,95.55 -200.39,156.15 -333.09,185.35 -43.8,9.73 -51.76,10.17 -303.9,10.17 -252.14,0 -260.1,-0.44 -303.9,-10.17 -254.79,-56.18 -442.35,-243.3 -497.2,-495.44 -7.52,-35.39 -9.73,-63.26 -11.5,-160.13 -1.77,-102.19 -1.33,-116.34 4.42,-110.59 3.1,3.54 32.29,38.48 64.14,77.85 80.07,98.65 97.76,113.25 154.38,127.84 49.99,12.83 103.96,3.98 148.63,-24.33 31.85,-19.9 41.59,-32.29 114.13,-140.22 36.28,-53.97 70.78,-101.74 76.97,-105.73 15.48,-10.17 28.31,-5.75 61.05,20.8 32.29,26.09 95.54,57.94 135.36,68.12 109.26,27.87 231.79,0 316.72,-72.55 76.09,-64.14 70.34,-61.04 87.14,-53.08l0.01 0zm670.16 85.81c-8.85,63.26 -62.81,142.44 -123.42,181.37l-12.38 7.52 0 -104.4 0 -104.39 69.01 0 69.44 0 -2.65 19.9 0 0zm-146.86 875.87c14.6,14.15 14.6,34.5 0,48.66l-10.62 11.05 -863.03 0 -863.03 0 -10.62 -11.05c-7.07,-6.64 -11.06,-15.93 -11.06,-24.33 0,-8.41 3.99,-17.7 11.06,-24.33l10.62 -11.06 863.03 0 863.03 0 10.62 11.06z"/>
    </g>
   </g>
   <path class="fil1 str0" d="M814.19 96.83c-14.66,14.99 -12.66,26.65 8.66,50.63 24.32,27.32 38.3,61.29 38.3,92.94 0,21.98 -7.32,38.64 -27.31,62.29 -46.97,56.29 -54.96,124.24 -22.32,189.53 11,21.65 33.65,47.64 42.64,48.3 20.32,1.33 33.64,-8.99 33.64,-26.31 0,-8.33 -3.99,-16.66 -14.99,-31.31 -17.98,-23.99 -23.31,-39.98 -23.31,-70.96 0,-28.64 9.32,-49.96 34.97,-81.61 27.98,-34.31 31.65,-44.96 31.65,-89.93 0,-35.65 -0.67,-39.97 -10.66,-64.29 -19.32,-46.3 -54.3,-88.94 -72.95,-88.94 -5,0 -12.66,4 -18.32,9.66l0 0z"/>
   <path class="fil1 str0" d="M1426.43 121.81c-3,2.33 -7.33,9 -9.33,14.99 -3.99,11.66 -3,13.99 24.65,50.63 20.65,27.32 29.65,51.97 29.98,79.61 0,24.66 -5,36.65 -24.65,60.3 -54.63,65.95 -59.96,142.56 -14.66,210.85 20.66,30.98 39.64,38.97 56.96,23.98 14,-11.99 12.66,-25.98 -4.66,-48.96 -18.32,-23.99 -24.65,-42.64 -24.98,-71.29 0,-29.64 9.33,-51.63 35.64,-83.6 39.97,-48.3 44.64,-103.27 14.66,-166.89 -11,-23.32 -35.31,-57.29 -48.3,-67.62 -9.66,-7.66 -26.65,-8.66 -35.31,-2z"/>
   <path class="fil1 str0" d="M1118.98 261.72c-11.99,5.32 -19.32,21.31 -14.99,32.97 1.66,4 8.99,14.66 16.98,23.99 26.99,32.31 42.98,76.28 37.98,103.92 -3,16.99 -9.66,29.32 -26.31,49.3 -47.97,57.63 -56.3,125.92 -22.66,192.54 9.66,18.98 29.32,41.97 40.31,45.96 10.99,4.33 29.65,-4.33 34.31,-15.98 4.33,-12 2,-20.32 -10.66,-36.31 -21.99,-27.65 -30.98,-59.29 -25.98,-91.27 3.66,-22.65 10.99,-36.98 33.64,-64.62 32.31,-39.31 41.64,-76.28 30.98,-123.92 -3,-14.65 -11.66,-37.64 -18.66,-51.63 -11.99,-22.98 -38.3,-58.29 -47.63,-63.29 -8.99,-5.33 -17.65,-5.66 -27.31,-1.66z"/>
  </g>
 </g>
</svg>
