<?xml version="1.0" encoding="UTF-8"?>
<!DOCTYPE svg PUBLIC "-//W3C//DTD SVG 1.1//EN" "http://www.w3.org/Graphics/SVG/1.1/DTD/svg11.dtd">
<!-- Creator: CorelDRAW -->
<svg xmlns="http://www.w3.org/2000/svg" xml:space="preserve" width="210mm" height="297mm" version="1.1" style="shape-rendering:geometricPrecision; text-rendering:geometricPrecision; image-rendering:optimizeQuality; fill-rule:evenodd; clip-rule:evenodd"
viewBox="0 0 21000 29700"
 xmlns:xlink="http://www.w3.org/1999/xlink"
 xmlns:xodm="http://www.corel.com/coreldraw/odm/2003">
 <defs>
  <style type="text/css">
   <![CDATA[
    .str0 {stroke:black;stroke-width:200;stroke-miterlimit:22.9256}
    .fil1 {fill:none;fill-rule:nonzero}
    .fil0 {fill:black;fill-rule:nonzero}
   ]]>
  </style>
 </defs>
 <g id="Слой_x0020_1">
  <metadata id="CorelCorpID_0Corel-Layer"/>
  <g id="_3083935879488">
   <g>
    <path class="fil0" d="M6772.91 10820.49c-645.58,102.31 -1220.61,204.61 -1280.58,229.31 -179.92,74.08 -381,306.92 -448.03,515.06 -52.92,169.33 -52.92,225.78 -14.11,518.58 24.69,176.39 52.92,366.89 63.5,416.28l17.64 91.72 -366.89 17.64c-508,24.69 -716.14,109.36 -1019.53,412.75 -169.33,169.33 -254,289.28 -317.5,444.5l-84.67 211.67 0 1904.99c0,1848.56 3.53,1915.58 81.14,2303.64 109.36,546.81 254,970.14 504.47,1471.08 268.11,539.75 596.19,1001.89 1019.53,1428.75 398.64,402.17 666.75,613.83 1164.17,906.64l370.42 222.25 -1495.78 0c-1068.92,0 -1534.58,10.58 -1640.42,42.33 -303.39,91.72 -585.61,479.78 -585.61,804.33 0,324.56 282.22,712.61 585.61,804.33 112.89,31.75 1732.14,42.33 7041.44,42.33 7778.74,0 7101.41,24.69 7376.57,-282.22 317.5,-352.78 317.5,-776.11 0,-1128.89 -254,-282.22 -250.47,-282.22 -1982.61,-282.22l-1502.83 0 381 -225.78c934.86,-557.39 1679.22,-1347.61 2148.42,-2282.47l186.97 -370.42 324.56 -81.14c444.5,-109.36 1075.97,-426.86 1449.92,-726.72 779.64,-627.94 1277.06,-1488.72 1439.33,-2487.08 165.81,-1008.94 -176.39,-1696.85 -966.61,-1940.27 -197.56,-59.97 -328.08,-70.56 -1026.58,-70.56l-804.33 0 -45.86 -151.69c-148.17,-500.94 -631.47,-903.11 -1167.69,-966.61l-165.81 -17.64 -17.64 -176.39c-24.69,-204.61 -158.75,-451.56 -299.86,-553.86 -232.83,-165.81 -2254.25,-1174.75 -2420.06,-1210.03 -144.64,-31.75 -218.72,-28.22 -381,21.17 -282.22,81.14 -433.92,239.89 -698.5,737.31l-218.72 419.81 -67.03 -137.58c-77.61,-165.81 -119.94,-218.72 -278.69,-335.14 -236.36,-179.92 -331.61,-183.44 -1534.57,-63.5 -599.72,56.44 -1104.19,105.83 -1118.31,105.83 -17.64,0 -28.22,-28.22 -28.22,-63.5 0,-116.42 -179.92,-423.33 -299.86,-518.58 -158.75,-119.94 -381,-194.03 -560.92,-190.5 -77.61,3.53 -670.28,88.19 -1315.86,190.5l-0.01 -0.01zm1471.08 405.7c38.81,21.17 84.67,67.03 105.83,102.31 31.75,63.5 211.67,1093.61 211.67,1217.08 0,49.39 -162.28,56.44 -1439.33,56.44l-1442.86 0 -63.5 -423.33c-56.44,-391.58 -56.44,-430.39 -3.53,-511.53 70.56,-109.36 24.69,-98.78 1301.75,-299.86 1178.28,-186.97 1234.72,-190.5 1329.97,-141.11zm5990.16 500.94c575.03,296.33 1083.03,571.5 1128.89,617.36 42.33,42.33 77.61,119.94 77.61,169.33l0 88.19 -1605.14 0c-881.94,0 -1605.14,-7.06 -1605.14,-17.64 0,-10.58 144.64,-292.81 317.5,-627.94 321.03,-606.78 437.44,-765.53 567.97,-765.53 35.28,0 539.75,239.89 1118.31,536.22l0 0.01zm-2973.92 63.5c119.94,45.86 179.92,197.56 208.14,539.75l24.69 271.64 -1174.74 -7.06 -1174.75 -10.58 -45.86 -292.81c-28.22,-162.28 -38.81,-303.39 -31.75,-313.97 14.11,-14.11 1732.14,-197.56 2042.58,-218.72 31.74,0 98.77,10.58 151.68,31.75l0.01 0zm5189.36 1499.31c105.83,67.03 211.67,172.86 278.69,278.69l105.83 172.86 10.58 948.96 10.58 945.44 -112.89 211.67c-137.58,257.53 -359.83,469.19 -624.42,592.67 -172.86,81.14 -246.94,95.25 -518.58,95.25 -275.17,0 -345.72,-14.11 -536.22,-102.31 -310.44,-141.11 -465.67,-324.56 -924.28,-1097.14 -222.25,-370.42 -444.5,-716.14 -493.89,-769.05 -151.69,-165.81 -349.25,-250.47 -585.61,-250.47 -268.11,0 -363.36,49.39 -790.22,426.85 -529.17,465.67 -1054.81,680.86 -1654.52,680.86 -476.25,-3.53 -1061.86,-222.25 -1453.44,-546.81 -275.17,-229.31 -402.17,-278.68 -670.28,-278.68 -257.53,0 -444.5,77.6 -603.25,250.46 -52.92,52.92 -321.03,440.97 -596.19,857.25 -275.17,416.28 -536.22,797.28 -578.56,839.61 -38.81,45.86 -151.69,127 -250.47,176.39 -144.64,77.61 -225.78,95.25 -440.97,95.25 -448.03,0 -504.47,-45.86 -1397,-1135.94l-762 -931.33 14.11 -500.93c10.58,-472.72 17.64,-511.53 109.36,-666.75 105.83,-179.92 246.94,-296.33 444.5,-366.89 102.31,-38.81 1255.89,-45.86 5986.64,-38.81l5859.63 7.06 172.86 105.83 0.01 0.01zm2695.23 1079.5c458.61,204.61 603.25,610.3 479.78,1322.91 -201.08,1153.58 -977.19,2137.83 -2039.06,2575.28 -352.78,141.11 -398.64,148.17 -366.89,38.81 10.58,-42.33 42.33,-179.92 67.03,-303.39 42.33,-218.72 45.86,-225.78 218.72,-310.44 843.14,-430.39 1425.22,-1213.56 1566.33,-2116.67 59.97,-402.17 52.92,-529.17 -49.39,-627.94 -84.67,-88.19 -84.67,-88.19 -846.67,-88.19l-758.47 0 0 -282.21 0 -282.22 786.69 0c712.61,0 797.28,7.06 941.92,74.08l0.01 -0.02zm-5990.17 529.16c52.92,21.17 246.94,310.44 539.75,797.28 511.53,846.67 656.17,1012.47 1075.97,1224.14 321.03,158.75 578.56,211.67 952.5,186.97 342.19,-17.64 617.36,-109.36 889,-292.81 98.78,-67.03 197.56,-134.06 215.19,-144.64 56.44,-35.28 3.53,776.11 -77.61,1178.28 -194.03,948.97 -635,1788.58 -1308.81,2490.61 -726.72,762 -1598.08,1245.31 -2656.42,1478.14 -349.25,77.61 -412.75,81.14 -2423.57,81.14 -2010.83,0 -2074.33,-3.53 -2423.58,-81.14 -2032,-448.03 -3527.78,-1940.28 -3965.22,-3951.11 -59.97,-282.22 -77.61,-504.47 -91.72,-1277.06 -14.11,-814.92 -10.58,-927.81 35.28,-881.94 24.69,28.22 257.53,306.92 511.53,620.89 638.53,786.69 779.64,903.11 1231.19,1019.53 398.64,102.31 829.03,31.75 1185.33,-194.03 254,-158.75 331.61,-257.53 910.17,-1118.31 289.28,-430.39 564.44,-811.39 613.83,-843.14 123.47,-81.14 225.78,-45.86 486.83,165.81 257.53,208.14 762,462.14 1079.5,543.28 871.36,222.25 1848.55,0 2525.88,-578.56 606.78,-511.53 560.92,-486.83 694.97,-423.33l0.01 0zm5344.58 684.38c-70.56,504.47 -500.94,1135.94 -984.25,1446.39l-98.78 59.97 0 -832.56 0 -832.56 550.33 0 553.86 0 -21.17 158.75 0.01 0.01zm-1171.22 6985c116.42,112.89 116.42,275.17 0,388.06l-84.67 88.19 -6882.68 0 -6882.69 0 -84.67 -88.19c-56.44,-52.92 -88.19,-127 -88.19,-194.03 0,-67.03 31.75,-141.11 88.19,-194.03l84.67 -88.19 6882.69 0 6882.68 0 84.67 88.19z"/>
   </g>
  </g>
  <path class="fil1 str0" d="M7813.17 4986.55c-116.88,119.54 -100.95,212.52 69.07,403.79 193.93,217.83 305.49,488.79 305.49,741.16 0,175.32 -58.44,308.15 -217.83,496.76 -374.57,448.94 -438.32,990.87 -177.98,1511.54 87.66,172.68 268.3,379.88 340.03,385.19 162.04,10.63 268.31,-71.72 268.31,-209.85 0,-66.41 -31.88,-132.83 -119.54,-249.71 -143.45,-191.27 -185.96,-318.78 -185.96,-565.84 0,-228.46 74.39,-398.47 278.94,-650.84 223.14,-273.62 252.37,-358.63 252.37,-717.25 0,-284.25 -5.32,-318.78 -85.01,-512.71 -154.08,-369.25 -433.01,-709.28 -581.77,-709.28 -39.85,0 -100.95,31.87 -146.11,77.04l-0.01 0z"/>
  <path class="fil1 str0" d="M12695.8 5185.79c-23.91,18.59 -58.45,71.72 -74.39,119.54 -31.87,92.97 -23.91,111.57 196.59,403.78 164.7,217.84 236.42,414.41 239.08,634.9 0,196.59 -39.85,292.22 -196.58,480.83 -435.67,525.98 -478.17,1136.98 -116.89,1681.56 164.7,247.05 316.13,310.8 454.26,191.26 111.58,-95.63 100.95,-207.21 -37.19,-390.5 -146.11,-191.27 -196.58,-340.03 -199.23,-568.48 0,-236.43 74.38,-411.76 284.24,-666.78 318.78,-385.19 355.97,-823.51 116.88,-1330.91 -87.66,-185.95 -281.58,-456.91 -385.19,-539.26 -77.04,-61.1 -212.52,-69.07 -281.58,-15.94z"/>
  <path class="fil1 str0" d="M10243.86 6301.51c-95.63,42.5 -154.07,170.02 -119.54,263 13.28,31.87 71.73,116.88 135.48,191.26 215.18,257.68 342.69,608.34 302.85,828.83 -23.91,135.48 -77.04,233.77 -209.86,393.16 -382.54,459.58 -448.95,1004.15 -180.64,1535.45 77.04,151.42 233.76,334.72 321.43,366.6 87.67,34.53 236.43,-34.54 273.62,-127.51 34.53,-95.64 15.94,-162.04 -85.01,-289.56 -175.33,-220.49 -247.05,-472.85 -207.21,-727.88 29.22,-180.64 87.67,-294.87 268.31,-515.36 257.67,-313.47 332.06,-608.33 247.05,-988.21 -23.91,-116.88 -92.98,-300.18 -148.77,-411.76 -95.63,-183.3 -305.49,-464.88 -379.87,-504.73 -71.73,-42.5 -140.8,-45.16 -217.84,-13.29z"/>
 </g>
</svg>
