<?xml version="1.0" standalone="no"?>
<!DOCTYPE svg PUBLIC "-//W3C//DTD SVG 20010904//EN"
 "http://www.w3.org/TR/2001/REC-SVG-20010904/DTD/svg10.dtd">
<svg version="1.0" xmlns="http://www.w3.org/2000/svg"
 width="512.000000pt" height="512.000000pt" viewBox="0 0 512.000000 512.000000"
 preserveAspectRatio="xMidYMid meet">

<g transform="translate(0.000000,512.000000) scale(0.100000,-0.100000)"
fill="#fff" stroke="none">
<path d="M3900 5110 c-318 -31 -613 -251 -742 -553 -54 -127 -69 -193 -75
-329 l-6 -128 -711 0 -711 0 -99 268 c-128 343 -144 379 -194 424 -41 37 -121
68 -171 68 -63 -1 -149 -51 -564 -328 -452 -302 -465 -313 -451 -368 8 -32 50
-64 83 -64 17 0 170 96 464 292 468 312 481 319 527 272 14 -14 220 -536 220
-558 0 -2 -73 -6 -162 -8 -152 -4 -166 -6 -214 -31 -65 -33 -110 -87 -130
-155 -15 -51 -10 -114 141 -1855 85 -991 160 -1826 166 -1855 17 -87 93 -168
178 -192 23 -6 368 -10 947 -10 l911 0 60 30 c62 31 109 84 131 147 6 18 70
717 143 1555 72 838 133 1524 134 1526 2 2 39 -2 83 -9 95 -15 278 0 394 32
176 48 364 170 476 307 71 88 162 264 188 362 35 141 35 330 -1 472 -52 199
-199 409 -370 528 -196 135 -397 185 -645 160z m20 -334 c0 -188 8 -222 56
-242 37 -15 58 -11 92 19 21 20 22 26 22 204 l0 183 28 0 c73 0 221 -56 324
-124 l48 -30 -130 -132 c-124 -125 -130 -133 -130 -172 0 -32 6 -45 26 -61 55
-43 75 -33 221 111 75 75 137 128 141 123 76 -106 125 -211 145 -310 l14 -70
-190 -5 -189 -5 -24 -28 c-13 -15 -24 -37 -24 -48 0 -28 26 -75 45 -83 9 -3
97 -6 196 -6 143 0 179 -3 179 -13 0 -30 -41 -173 -64 -224 -14 -29 -41 -78
-62 -109 l-37 -55 -132 130 c-86 85 -139 131 -153 131 -34 0 -69 -20 -81 -47
-25 -55 -17 -69 116 -205 l128 -129 -25 -20 c-52 -39 -182 -100 -256 -119 -88
-23 -269 -27 -356 -9 -29 6 -54 12 -55 13 -1 1 4 76 12 167 26 287 20 323 -60
406 -71 72 -113 83 -327 83 l-168 0 0 91 c0 49 7 122 16 162 16 72 86 230 123
277 l20 25 129 -128 c119 -116 133 -127 166 -127 48 0 86 36 86 81 0 28 -18
50 -131 164 l-130 132 43 32 c61 45 155 90 235 111 122 33 113 46 113 -144z
m-2383 -858 c18 -23 196 -508 189 -515 -12 -12 -208 15 -301 42 -49 14 -133
47 -185 73 l-95 47 -13 140 c-20 219 -17 223 239 224 114 1 159 -2 166 -11z
m2070 -7 c38 -20 46 -59 34 -177 -6 -59 -11 -111 -11 -116 0 -5 -23 3 -50 17
-152 77 -336 115 -555 115 -226 0 -398 -38 -569 -125 -44 -23 -133 -69 -196
-101 -103 -54 -211 -91 -310 -108 l-35 -6 -93 247 c-51 137 -92 254 -92 262 0
12 136 13 929 9 628 -4 935 -9 948 -17z m-342 -350 c103 -22 201 -57 286 -102
57 -31 59 -33 59 -71 0 -85 -271 -3152 -280 -3169 -28 -51 13 -49 -940 -49
-947 0 -923 -1 -946 50 -6 14 -71 711 -143 1550 -72 839 -134 1540 -137 1559
-5 30 -3 33 13 26 180 -78 326 -113 506 -123 l119 -7 467 -1248 c299 -799 475
-1255 489 -1269 44 -45 123 -20 137 43 5 22 -92 291 -455 1259 -254 678 -460
1233 -458 1234 1 2 43 13 93 25 114 28 202 65 340 142 132 74 213 108 320 137
106 28 116 29 290 30 113 1 172 -3 240 -17z"/>
<path d="M1402 3054 c-35 -24 -44 -59 -27 -100 34 -83 155 -59 155 31 0 69
-73 108 -128 69z"/>
<path d="M1646 2874 c-37 -38 -36 -84 5 -118 40 -34 74 -33 110 3 36 36 37 70
3 110 -34 41 -80 42 -118 5z"/>
<path d="M1475 2615 c-67 -66 20 -171 104 -125 31 16 46 65 31 100 -23 56 -92
69 -135 25z"/>
</g>
</svg>
