<?xml version="1.0" standalone="no"?>
<!DOCTYPE svg PUBLIC "-//W3C//DTD SVG 20010904//EN"
 "http://www.w3.org/TR/2001/REC-SVG-20010904/DTD/svg10.dtd">
<svg version="1.0" xmlns="http://www.w3.org/2000/svg"
 width="512.000000pt" height="512.000000pt" viewBox="0 0 512.000000 512.000000"
 preserveAspectRatio="xMidYMid meet">

<g transform="translate(0.000000,512.000000) scale(0.100000,-0.100000)"
fill="#fff" stroke="none">
<path d="M1085 4601 c-52 -23 -93 -71 -107 -127 l-12 -44 -114 0 c-107 0 -114
-1 -137 -25 l-25 -24 0 -444 c0 -536 -16 -487 155 -487 l115 0 0 -353 c0 -293
-3 -363 -16 -408 -32 -110 -103 -202 -210 -269 -69 -43 -85 -71 -63 -112 6
-12 50 -83 96 -156 90 -141 109 -156 161 -132 85 38 221 152 301 250 l20 25 1
-204 c0 -156 -4 -217 -16 -265 -9 -33 -19 -83 -23 -111 l-6 -50 -236 -5 c-294
-6 -285 -2 -275 -130 27 -390 291 -707 677 -812 l84 -23 1105 0 c1021 0 1110
1 1173 18 392 100 665 423 694 818 6 85 5 86 -22 107 -22 18 -41 22 -95 22
l-68 0 -7 64 c-9 92 -64 242 -121 333 -130 208 -333 353 -574 410 -109 26
-288 23 -405 -5 -105 -26 -249 -94 -320 -151 -101 -81 -88 -79 -146 -28 -159
139 -404 218 -627 202 l-92 -6 2 487 3 488 48 12 c102 26 214 103 273 188 l21
28 754 -11 c415 -6 844 -12 954 -14 l200 -2 57 28 c144 71 204 238 135 380
-32 65 -70 100 -146 135 l-54 25 -947 -13 -947 -13 -68 71 c-72 77 -167 134
-244 147 -38 6 -41 9 -55 58 -16 56 -57 103 -113 131 -48 24 -131 21 -184 -7
l-43 -23 -41 23 c-55 31 -136 31 -195 0 l-43 -23 -45 23 c-56 28 -131 30 -187
4z m141 -142 c18 -20 19 -50 19 -913 0 -832 -1 -895 -18 -956 -42 -148 -131
-286 -240 -368 -31 -23 -60 -42 -64 -42 -5 0 -27 30 -50 67 l-41 66 49 39 c84
66 163 181 200 293 11 32 15 224 19 916 5 844 6 878 24 898 25 28 77 28 102 0z
m283 -5 c21 -27 21 -29 21 -1098 l0 -1071 -70 -69 -70 -70 0 1149 c0 1055 1
1150 17 1167 25 28 77 24 102 -8z m280 0 c21 -27 21 -28 19 -1021 l-3 -994
-67 -29 -68 -28 0 1031 c0 945 1 1032 17 1049 25 28 77 24 102 -8z m-829 -234
l0 -70 -65 0 -65 0 0 70 0 70 65 0 65 0 0 -70z m1077 28 c50 -23 115 -85 145
-139 12 -21 33 -42 47 -47 15 -5 377 -3 846 5 451 7 891 12 977 11 151 -3 157
-4 184 -28 54 -50 67 -116 35 -178 -35 -68 -64 -77 -241 -75 -85 1 -526 8
-979 14 l-825 12 -18 -24 c-82 -107 -109 -135 -153 -160 -27 -15 -62 -31 -77
-34 l-28 -7 0 342 0 341 23 -6 c12 -4 41 -16 64 -27z m-1077 -308 l0 -70 -65
0 -65 0 0 70 0 70 65 0 65 0 0 -70z m0 -280 l0 -70 -65 0 -65 0 0 70 0 70 65
0 65 0 0 -70z m1270 -1324 c226 -41 418 -177 534 -377 34 -60 75 -180 83 -246
l6 -53 -80 0 -80 0 -13 61 c-35 162 -159 322 -310 399 -129 66 -307 80 -448
35 -203 -64 -356 -230 -402 -437 l-13 -58 -82 0 -83 0 13 68 c78 408 471 681
875 608z m1305 -11 c87 -22 231 -96 296 -152 124 -106 212 -243 249 -389 33
-127 34 -124 -59 -124 l-78 0 -17 68 c-28 114 -70 188 -160 278 -86 86 -176
138 -281 164 -69 16 -218 14 -289 -5 -78 -21 -180 -75 -241 -129 l-49 -43 -44
71 -44 71 34 28 c99 84 227 145 358 173 79 16 240 11 325 -11z m-1300 -300
c93 -26 191 -100 246 -186 25 -40 69 -147 69 -171 0 -4 -35 -8 -79 -8 l-78 0
-17 43 c-24 64 -78 122 -144 154 -47 23 -70 28 -132 28 -62 0 -85 -5 -132 -28
-66 -32 -120 -90 -144 -154 l-17 -43 -78 0 c-44 0 -79 4 -79 8 0 31 49 142 85
190 116 158 306 221 500 167z m1245 -2 c139 -38 251 -146 299 -291 12 -34 21
-64 21 -67 0 -3 -36 -5 -80 -5 -79 0 -81 1 -90 28 -29 79 -80 135 -156 173
-73 36 -178 34 -256 -4 -65 -32 -119 -89 -145 -154 -16 -39 -21 -43 -48 -41
-27 3 -31 7 -36 48 -4 25 -10 66 -14 92 l-8 47 59 59 c123 123 280 163 454
115z m-1291 -302 c17 -12 36 -31 41 -42 10 -18 6 -19 -130 -19 -136 0 -140 1
-130 19 10 20 51 53 80 64 30 13 107 0 139 -22z m1231 7 c24 -13 50 -33 58
-45 l14 -23 -141 0 c-77 0 -141 4 -141 8 0 13 53 60 80 71 41 16 83 12 130
-11z m858 -264 c-43 -278 -244 -506 -528 -601 l-85 -28 -1100 0 c-1227 0
-1144 -4 -1300 70 -230 110 -381 315 -429 583 l-5 32 1728 0 1728 0 -9 -56z"/>
</g>
</svg>
