<?xml version="1.0" standalone="no"?>
<!DOCTYPE svg PUBLIC "-//W3C//DTD SVG 20010904//EN"
 "http://www.w3.org/TR/2001/REC-SVG-20010904/DTD/svg10.dtd">
<svg version="1.0" xmlns="http://www.w3.org/2000/svg"
 width="512.000000pt" height="512.000000pt" viewBox="0 0 512.000000 512.000000"
 preserveAspectRatio="xMidYMid meet">

<g transform="translate(0.000000,512.000000) scale(0.100000,-0.100000)"
fill="#fff" stroke="none">
<path d="M3090 4684 c-46 -9 -124 -36 -165 -58 -35 -18 -58 -20 -195 -21 -143
0 -161 -2 -228 -27 -88 -32 -165 -77 -231 -135 -46 -40 -53 -43 -108 -43 -133
-1 -287 -56 -404 -146 -53 -41 -123 -117 -148 -162 -8 -14 -18 -11 -82 20
-127 62 -251 85 -366 69 -69 -10 -74 -10 -135 19 -181 84 -395 82 -554 -7 -61
-34 -153 -126 -187 -187 -90 -162 -93 -369 -8 -552 27 -57 28 -67 23 -157 l-5
-97 -104 0 c-169 0 -193 -24 -193 -192 1 -520 145 -1003 427 -1431 251 -381
645 -722 1040 -903 42 -19 79 -37 81 -39 3 -3 -5 -12 -17 -22 -46 -38 -43
-124 5 -162 27 -21 32 -21 1024 -21 992 0 997 0 1024 21 48 38 51 124 5 162
-12 10 -20 19 -17 22 2 2 39 20 81 39 395 181 789 522 1040 903 282 428 426
911 427 1431 0 173 -21 192 -212 192 l-124 0 -52 53 c-45 46 -52 58 -52 93 0
62 -36 188 -72 257 -40 74 -121 164 -187 206 -38 24 -51 40 -60 73 -22 73 -73
151 -145 224 -73 72 -138 111 -240 141 -52 16 -195 21 -233 9 -19 -6 -23 -2
-28 31 -4 21 -24 74 -46 119 -57 120 -161 211 -295 259 -49 16 -232 29 -284
19z m242 -232 c95 -41 158 -123 177 -226 l11 -59 -63 -66 c-67 -71 -117 -151
-138 -219 -9 -33 -22 -49 -60 -73 -66 -42 -147 -132 -187 -206 -36 -69 -72
-195 -72 -257 0 -35 -7 -47 -52 -93 l-52 -53 -106 1 c-68 0 -98 3 -84 9 35 14
64 59 64 101 0 29 -7 45 -31 68 -30 31 -31 31 -137 31 l-107 0 110 110 110
110 157 0 156 0 31 31 c42 41 43 95 3 140 -23 26 -38 32 -81 37 l-52 5 129
131 c131 132 150 161 138 212 -8 31 -48 70 -79 76 -50 10 -83 -12 -207 -137
-69 -69 -128 -125 -132 -125 -5 0 -8 20 -8 44 0 84 -78 138 -149 102 -53 -28
-61 -58 -61 -223 l0 -148 -90 -90 c-49 -49 -91 -87 -93 -84 -21 23 -27 64 -27
191 0 79 -5 160 -10 180 -29 104 -171 104 -200 0 -5 -20 -10 -52 -10 -69 l0
-33 -57 29 c-71 36 -145 58 -223 67 -33 4 -60 11 -60 15 0 22 123 128 181 156
74 36 175 57 229 48 62 -10 111 10 186 76 38 34 102 77 144 97 68 33 83 36
160 36 47 0 114 -3 150 -8 63 -8 67 -7 132 28 37 20 91 43 120 51 68 19 182
13 240 -13z m-2372 -457 l102 -48 74 13 c165 28 276 -4 418 -122 85 -72 102
-78 211 -78 275 0 509 -256 471 -514 l-7 -46 -259 0 -258 0 -4 180 -3 180 -32
31 c-25 26 -39 32 -73 32 -34 0 -48 -6 -73 -32 l-32 -31 -3 -180 -4 -180 -26
0 c-20 0 -47 20 -104 77 l-78 78 0 198 c0 220 -5 244 -61 273 -43 22 -91 11
-123 -27 -24 -28 -26 -38 -26 -131 l0 -101 -133 130 c-106 104 -141 133 -169
138 -73 14 -137 -50 -123 -124 6 -30 45 -74 243 -273 l236 -238 -307 0 -307 0
0 41 c0 22 5 71 11 109 l12 68 -48 102 c-42 91 -48 111 -52 188 -7 113 17 181
88 252 70 70 130 91 245 87 84 -4 99 -8 194 -52z m2994 34 c106 -39 174 -123
231 -282 15 -42 27 -55 85 -93 125 -80 172 -159 194 -321 8 -54 17 -106 21
-115 7 -17 -10 -18 -264 -18 l-271 0 0 28 c0 24 17 38 136 116 75 50 144 101
155 114 50 64 2 162 -79 162 -31 0 -58 -12 -123 -55 l-84 -54 -5 127 c-6 144
-18 173 -76 192 -25 9 -43 9 -68 0 -58 -19 -70 -48 -76 -192 l-5 -127 -84 54
c-65 43 -92 55 -123 55 -81 0 -129 -98 -79 -162 11 -13 80 -64 155 -114 119
-78 136 -92 136 -116 l0 -28 -269 0 -268 0 8 38 c4 20 12 74 18 119 17 136 71
219 191 297 58 38 70 51 85 93 57 158 125 242 228 282 70 27 160 27 231 0z
m950 -1048 c8 -13 -12 -275 -30 -381 -53 -315 -176 -630 -351 -895 -98 -149
-165 -231 -296 -363 -362 -368 -813 -597 -1337 -679 -160 -24 -500 -24 -660 0
-430 67 -815 236 -1140 498 -107 87 -270 249 -356 354 -143 175 -296 444 -378
668 -43 116 -88 286 -110 420 -18 105 -39 365 -30 379 7 11 4681 11 4688 -1z"/>
</g>
</svg>
