<?xml version="1.0" standalone="no"?>
<!DOCTYPE svg PUBLIC "-//W3C//DTD SVG 20010904//EN"
 "http://www.w3.org/TR/2001/REC-SVG-20010904/DTD/svg10.dtd">
<svg version="1.0" xmlns="http://www.w3.org/2000/svg"
 width="320.000000pt" height="320.000000pt" viewBox="0 0 320.000000 320.000000"
 preserveAspectRatio="xMidYMid meet">

<g transform="translate(0.000000,320.000000) scale(0.100000,-0.100000)"
fill="#fff" stroke="none">
<path d="M2254 3174 c-34 -22 -57 -56 -149 -223 -59 -108 -109 -197 -110 -199
-2 -2 -41 15 -87 37 -137 67 -219 84 -388 85 -175 0 -242 -14 -385 -85 -239
-117 -409 -342 -455 -601 -10 -53 -16 -66 -43 -83 -74 -48 -95 -128 -55 -204
14 -26 37 -51 56 -60 37 -19 33 -3 72 -291 16 -124 57 -425 90 -670 33 -245
72 -533 86 -640 15 -107 33 -205 40 -217 l14 -23 580 0 580 0 14 23 c8 13 58
352 130 887 64 476 119 876 122 890 3 15 17 31 36 41 19 9 42 34 56 60 40 75
19 155 -55 204 -27 18 -33 30 -47 105 -31 154 -104 294 -217 413 l-59 61 102
186 c55 102 108 193 116 203 28 32 53 19 158 -83 84 -82 108 -100 133 -100 31
0 51 22 51 55 0 19 -211 225 -248 242 -45 20 -94 15 -138 -13z m-548 -424
c217 -55 398 -200 490 -395 32 -68 64 -170 64 -207 0 -17 -36 -18 -740 -18
-673 0 -740 1 -740 16 0 36 34 143 66 211 41 86 114 179 192 246 69 59 217
133 303 152 99 21 271 19 365 -5z m642 -736 c26 -18 28 -50 5 -76 -15 -17 -54
-18 -831 -18 -745 0 -817 1 -834 17 -25 22 -23 59 4 77 20 14 115 16 828 16
713 0 808 -2 828 -16z m-94 -244 c-4 -21 -48 -344 -98 -717 l-92 -678 -544 0
-544 0 -92 678 c-50 373 -94 696 -98 717 l-6 40 740 0 740 0 -6 -40z m-208
-1527 c-3 -16 -8 -52 -11 -80 l-7 -53 -508 0 -508 0 -7 53 c-3 28 -8 64 -11
80 l-6 27 532 0 532 0 -6 -27z"/>
<path d="M1390 2655 c-135 -25 -275 -109 -370 -223 -81 -96 -101 -160 -59
-182 35 -19 62 -4 96 52 86 145 277 257 436 258 54 0 77 15 77 50 0 35 -32 60
-75 59 -16 0 -64 -7 -105 -14z"/>
<path d="M1812 1694 c-39 -27 -19 -94 28 -94 47 0 67 67 28 94 -12 9 -25 16
-28 16 -3 0 -16 -7 -28 -16z"/>
<path d="M2020 1690 c-11 -11 -20 -28 -20 -38 0 -24 31 -52 58 -52 21 0 52 34
52 57 0 18 -37 53 -55 53 -8 0 -24 -9 -35 -20z"/>
<path d="M1411 1584 c-209 -56 -346 -264 -312 -474 16 -96 60 -177 135 -248
80 -74 148 -103 263 -110 176 -10 324 75 403 233 80 159 53 344 -70 478 -104
114 -268 162 -419 121z m59 -184 c0 -49 -3 -90 -7 -90 -10 0 -123 112 -123
122 0 12 87 53 123 57 4 1 7 -39 7 -89z m193 58 c20 -10 37 -22 37 -26 0 -10
-113 -122 -123 -122 -4 0 -7 41 -7 90 l0 90 28 -6 c15 -4 44 -15 65 -26z
m-338 -168 l59 -60 -87 0 c-76 0 -87 2 -87 18 1 23 37 102 47 102 5 0 35 -27
68 -60z m488 13 c31 -69 30 -188 -2 -260 -28 -63 -103 -136 -169 -165 -78 -35
-202 -29 -271 13 l-34 21 219 219 c120 120 222 219 227 219 4 0 18 -21 30 -47z
m-483 -248 c-35 -36 -67 -65 -71 -65 -9 0 -49 94 -49 114 0 13 15 16 92 16
l92 0 -64 -65z"/>
<path d="M2010 1471 c-14 -27 -13 -47 6 -65 24 -24 61 -20 80 9 15 23 15 27 0
50 -21 31 -70 35 -86 6z"/>
<path d="M1057 782 c-39 -43 2 -103 56 -83 33 13 43 45 23 76 -20 30 -56 33
-79 7z"/>
<path d="M1062 574 c-41 -28 -16 -94 36 -94 21 0 52 34 52 57 0 17 -36 53 -53
53 -7 0 -23 -7 -35 -16z"/>
<path d="M1270 570 c-11 -11 -20 -26 -20 -33 0 -24 31 -57 54 -57 26 0 56 28
56 53 0 21 -35 57 -55 57 -8 0 -24 -9 -35 -20z"/>
</g>
</svg>
