<?xml version="1.0" encoding="UTF-8"?>
<!DOCTYPE svg PUBLIC "-//W3C//DTD SVG 1.1//EN" "http://www.w3.org/Graphics/SVG/1.1/DTD/svg11.dtd">
<!-- Creator: CorelDRAW -->
<svg xmlns="http://www.w3.org/2000/svg" xml:space="preserve" width="210mm" height="297mm" version="1.1" style="shape-rendering:geometricPrecision; text-rendering:geometricPrecision; image-rendering:optimizeQuality; fill-rule:evenodd; clip-rule:evenodd"
viewBox="0 0 21000 29700"
 xmlns:xlink="http://www.w3.org/1999/xlink"
 xmlns:xodm="http://www.corel.com/coreldraw/odm/2003">
 <defs>
  <style type="text/css">
   <![CDATA[
    .str1 {stroke:black;stroke-width:200;stroke-miterlimit:22.9256}
    .str0 {stroke:#2B2A29;stroke-width:300;stroke-miterlimit:22.9256}
    .fil0 {fill:none}
    .fil1 {fill:none;fill-rule:nonzero}
    .fil2 {fill:#FEFEFE}
   ]]>
  </style>
 </defs>
 <g id="Слой_x0020_1">
  <metadata id="CorelCorpID_0Corel-Layer"/>
  <path class="fil0 str0" d="M10608.84 9760.22c-51.47,0 -102.79,-0.12 -153.95,-0.36 -17.66,-0.08 -35.22,-0.24 -52.83,-0.35 -33.97,-0.21 -67.95,-0.41 -101.77,-0.72l-53.15 -0.59c-33.4,-0.36 -66.83,-0.71 -100.08,-1.17 -18.28,-0.25 -36.44,-0.57 -54.66,-0.85 -32.45,-0.5 -64.91,-0.99 -97.21,-1.59 -20.36,-0.37 -40.6,-0.82 -60.9,-1.23 -29.21,-0.59 -58.45,-1.17 -87.54,-1.84 -22.52,-0.52 -44.95,-1.1 -67.39,-1.66 -27.41,-0.68 -54.85,-1.36 -82.15,-2.11 -23.27,-0.64 -46.44,-1.35 -69.64,-2.04 -25.8,-0.77 -51.61,-1.53 -77.31,-2.36 -23.67,-0.76 -47.24,-1.58 -70.82,-2.39 -25.48,-0.88 -50.94,-1.76 -76.31,-2.69l-69.43 -2.66c-25.71,-1 -51.39,-2.02 -76.98,-3.08l-68.21 -2.93 -75.63 -3.4 -69.52 -3.31c-24.02,-1.16 -47.98,-2.36 -71.88,-3.58l-71.39 -3.74c-24.24,-1.3 -48.41,-2.62 -72.52,-3.97 -21.61,-1.21 -43.19,-2.43 -64.7,-3.69 -25.58,-1.49 -51.04,-3.02 -76.47,-4.57 -21.98,-1.34 -43.95,-2.69 -65.83,-4.08 -23.38,-1.48 -46.66,-3 -69.9,-4.53l-68.67 -4.58c-22.89,-1.56 -45.65,-3.18 -68.41,-4.79 -22.4,-1.59 -44.81,-3.17 -67.08,-4.81 -23.62,-1.73 -47.09,-3.52 -70.56,-5.31 -21.45,-1.64 -42.97,-3.25 -64.29,-4.93 -22.77,-1.79 -45.35,-3.64 -67.97,-5.48 -22.12,-1.8 -44.31,-3.58 -66.3,-5.43 -22.96,-1.93 -45.73,-3.92 -68.53,-5.9 -20.28,-1.76 -40.64,-3.48 -60.8,-5.28 -23.74,-2.11 -47.24,-4.31 -70.81,-6.48 -20.29,-1.87 -40.7,-3.71 -60.87,-5.62 -20.53,-1.95 -40.82,-3.96 -61.21,-5.95 -22.28,-2.17 -44.67,-4.31 -66.79,-6.53 -18.77,-1.89 -384.94,-42.41 -403.6,-44.33l3324.06 180.91zm-3569.78 5706l7073.57 0c148.5,0 270,-121.5 270,-270l0 -453.07c0,-148.5 -121.5,-270 -270,-270l-1285.86 0 -4493.58 0 -1294.13 0c-148.5,0 -270,121.5 -270,270l0 453.07c0,148.5 121.5,270 270,270zm319.27 -5878.29c-12.71,-1.47 -25.57,-2.9 -38.2,-4.39 -23.75,-2.8 -47.19,-5.67 -70.69,-8.53 -16.94,-2.05 -34,-4.09 -50.81,-6.17 -21.96,-2.72 -43.65,-5.51 -65.4,-8.29 -17.31,-2.2 -34.73,-4.39 -51.9,-6.63 -23.11,-3.01 -45.94,-6.09 -68.79,-9.16 -15.69,-2.11 -31.47,-4.2 -47.04,-6.33 -22.66,-3.1 -45.05,-6.26 -67.46,-9.42 -15.41,-2.17 -30.89,-4.32 -46.19,-6.52 -22.22,-3.19 -44.18,-6.44 -66.14,-9.69 -15.5,-2.3 -31.06,-4.57 -46.44,-6.89 -21.21,-3.2 -42.22,-6.45 -63.19,-9.7 -15.41,-2.38 -30.84,-4.77 -46.12,-7.18 -21,-3.32 -41.79,-6.68 -62.54,-10.05 -15.15,-2.46 -30.31,-4.92 -45.33,-7.41 -20.41,-3.38 -40.65,-6.8 -60.8,-10.23l-43.85 -7.52c-20.58,-3.57 -41.01,-7.18 -61.32,-10.81l-41.16 -7.4c-19.83,-3.6 -39.53,-7.23 -59.08,-10.89l-42.51 -8.02c-19.21,-3.66 -38.31,-7.34 -57.26,-11.05l-39.6 -7.84c-19.78,-3.94 -39.47,-7.92 -58.95,-11.91 -11.33,-2.32 -22.57,-4.67 -33.8,-7.01 -20.6,-4.3 -41.12,-8.62 -61.37,-12.98l-31.35 -6.83c-19.91,-4.35 -39.74,-8.72 -59.29,-13.13l-33.02 -7.55c-18.84,-4.33 -37.65,-8.66 -56.15,-13.03 -9.81,-2.32 -19.45,-4.67 -29.17,-7.01 -19.92,-4.8 -39.8,-9.59 -59.33,-14.43l-19.98 -5.05c-21.59,-5.42 -43.07,-10.87 -64.15,-16.37l-15.26 -4.05c-22.06,-5.81 -43.99,-11.65 -65.47,-17.54l-11.27 -3.15c-150.61,-41.62 -286.64,-85.18 -406.63,-130.46l-5.85 -2.17c-17.51,-6.64 -34.53,-13.35 -51.35,-20.06 -3.33,-1.33 -6.78,-2.64 -10.09,-3.98 -16.09,-6.49 -31.7,-13.04 -47.14,-19.6 -3.68,-1.56 -7.47,-3.11 -11.12,-4.68 -14.6,-6.28 -28.77,-12.61 -42.77,-18.95 -4.27,-1.94 -8.65,-3.87 -12.87,-5.81 -13.35,-6.14 -26.29,-12.32 -39.06,-18.52 -4.4,-2.13 -8.88,-4.26 -13.2,-6.4 -12.56,-6.21 -24.75,-12.46 -36.73,-18.72 -4.06,-2.13 -8.18,-4.23 -12.17,-6.36 -11.63,-6.19 -22.92,-12.43 -33.98,-18.68 -4.04,-2.29 -8.13,-4.57 -12.1,-6.87 -10.75,-6.21 -21.18,-12.44 -31.36,-18.69 -3.79,-2.33 -7.56,-4.65 -11.26,-6.98 -9.92,-6.24 -19.54,-12.5 -28.89,-18.79 -3.55,-2.38 -7.07,-4.78 -10.53,-7.17 -9.18,-6.34 -18.1,-12.71 -26.69,-19.09 -3.08,-2.29 -6.11,-4.59 -9.12,-6.89 -8.49,-6.48 -16.73,-12.97 -24.6,-19.49 -2.73,-2.26 -5.37,-4.53 -8.03,-6.8 -7.77,-6.63 -15.31,-13.27 -22.44,-19.94 -2.27,-2.12 -4.42,-4.24 -6.62,-6.36 -7.06,-6.81 -13.91,-13.63 -20.3,-20.49 -1.9,-2.03 -3.65,-4.07 -5.49,-6.1 -6.3,-6.98 -12.39,-13.99 -17.99,-21.01 -1.49,-1.87 -2.83,-3.74 -4.26,-5.61 -5.56,-7.21 -10.89,-14.44 -15.7,-21.7 -1.07,-1.61 -1.97,-3.22 -2.99,-4.83 -4.84,-7.59 -9.44,-15.18 -13.47,-22.81 -0.53,-1 -0.94,-2 -1.45,-3 -4.23,-8.25 -8.12,-16.51 -11.37,-24.8 -429.3,-1040.68 5741.94,-1208.42 6098.51,-1209.16 1199.14,-2.49 2317.46,60.43 3261.35,170.44m0 0c316.9,36.94 614.08,79.19 888.11,126.05m0 0c42.8,7.32 85.11,14.74 126.76,22.28 -41.65,-7.54 -83.96,-14.96 -126.76,-22.28zm126.76 22.28c220.17,39.87 424.23,82.79 610,128.41l-610 -128.41zm610 128.41c771.32,189.45 1228.66,425.23 1228.66,679.53 0,44.11 -29.31,82.46 0,82.44 7.63,118.2 11.97,237.23 11.97,357.24 0,2455.52 -1620.43,4554.44 -3908.92,5399.96m-4493.58 0c-2288.49,-845.52 -3908.92,-2944.44 -3908.92,-5399.96 0,-304.97 64.95,-486.05 64.95,-447.61 0,-38.44 -64.95,142.64 -64.95,447.61 0,-304.97 64.95,-486.05 64.95,-447.61m12190.89 141.39c-6.41,6.85 -58.7,72.52 -65.78,79.34 -2.2,2.12 -4.34,4.24 -6.62,6.36 -7.15,6.67 -14.66,13.31 -22.44,19.94 -2.66,2.27 -5.29,4.54 -8.03,6.8 -7.88,6.52 -16.1,13.01 -24.6,19.49 -3.01,2.29 -6.02,4.6 -9.12,6.89 -8.6,6.38 -17.5,12.74 -26.68,19.09l-10.53 7.17c-9.36,6.29 -18.97,12.55 -28.9,18.79 -3.7,2.33 -7.47,4.66 -11.26,6.98 -10.18,6.26 -20.6,12.48 -31.36,18.69 -3.98,2.3 -8.04,4.58 -12.1,6.87 -11.07,6.25 -22.34,12.48 -33.98,18.68 -3.99,2.12 -8.1,4.24 -12.16,6.36 -11.99,6.25 -24.16,12.51 -36.73,18.72 -4.33,2.14 -8.8,4.27 -13.2,6.4 -12.79,6.2 -25.72,12.38 -39.07,18.52 -4.21,1.95 -8.59,3.87 -12.87,5.81 -14.01,6.34 -28.16,12.66 -42.77,18.95l-11.12 4.68c-15.44,6.55 -31.05,13.11 -47.14,19.6 -3.3,1.34 -6.75,2.65 -10.09,3.98 -16.82,6.71 -33.84,13.42 -51.34,20.06l-5.86 2.17c-119.72,45.17 -255.34,88.62 -405.53,130.15l-12.54 3.51c-21.3,5.85 -43.03,11.62 -64.92,17.38l-15.66 4.17c-21.06,5.5 -42.53,10.94 -64.12,16.36l-19.99 5.05c-19.51,4.85 -39.39,9.64 -59.33,14.43 -9.73,2.33 -19.34,4.69 -29.17,7.01 -18.5,4.37 -37.31,8.7 -56.15,13.03 -10.98,2.52 -21.9,5.05 -32.99,7.55 -19.7,4.45 -39.68,8.84 -59.75,13.22l-30.67 6.69c-20.37,4.38 -40.99,8.72 -61.71,13.05l-33.71 6.99c-19.47,4 -39.16,7.96 -58.95,11.91l-39.54 7.83c-19.03,3.72 -38.21,7.41 -57.49,11.09l-42.31 7.99c-19.51,3.64 -90.23,16.42 -110.49,20.12 526.33,-21.58 1965.17,-513.79 1828.77,-677.87zm-1828.77 677.87c-17.03,3.03 -34.14,6.04 -51.36,9.02l-43.25 7.42c-20.29,3.45 -40.64,6.9 -61.18,10.3 -14.96,2.48 -30.06,4.93 -45.16,7.38 -20.87,3.39 -41.78,6.77 -62.9,10.11 -15.08,2.38 -30.29,4.73 -45.49,7.08 -21.12,3.27 -42.25,6.54 -63.61,9.76 -15.38,2.32 -30.92,4.6 -46.42,6.89 -21.96,3.24 -43.92,6.5 -66.13,9.69 -15.3,2.2 -30.78,4.35 -46.2,6.52 -22.42,3.16 -44.8,6.32 -67.45,9.42 -15.58,2.13 -31.35,4.22 -47.04,6.33 -22.86,3.07 -45.67,6.15 -68.77,9.16 -17.42,2.27 -35.07,4.48 -52.62,6.72 -21.47,2.74 -42.87,5.49 -64.53,8.18 -17.14,2.13 -34.53,4.2 -51.79,6.29 -23.26,2.82 -46.41,5.66 -69.87,8.43 -13.13,1.54 -26.5,3.03 -39.7,4.56 -27.06,3.13 -54.08,6.29 -81.43,9.35 27.35,-3.06 54.37,-6.22 81.43,-9.35l993.47 -143.26zm-1034.18 147.97l-66.08 7.07m0 0l-9.74 1.04m0 0c-81.35,8.74 -199.73,21.48 -211.89,22.7 -22.15,2.22 -44.59,4.36 -66.91,6.54 -20.46,1.99 -40.79,4.02 -61.38,5.97 -19.93,1.89 -40.09,3.71 -60.15,5.56 -23.76,2.19 -47.45,4.39 -71.39,6.53 -20.21,1.8 -40.61,3.54 -60.94,5.3 -22.77,1.97 -45.48,3.96 -68.4,5.88 -21.87,1.84 -43.93,3.61 -65.95,5.4 -22.79,1.85 -45.55,3.72 -68.48,5.52 -21.18,1.66 -42.52,3.28 -63.82,4.9 -23.58,1.8 -47.14,3.59 -70.87,5.33 -22.31,1.64 -44.76,3.22 -67.2,4.81 -22.71,1.61 -45.41,3.22 -68.25,4.78 -22.82,1.56 -45.76,3.08 -68.7,4.59 -23.26,1.53 -46.54,3.06 -69.94,4.54 -21.81,1.38 -43.71,2.73 -65.63,4.06 -25.53,1.56 -51.12,3.09 -76.81,4.59l-64.35 3.67c-24.19,1.35 -48.42,2.69 -72.73,3.99l-71.35 3.73 -71.82 3.58 -69.66 3.31 -75.5 3.4 -68.28 2.93c-25.55,1.07 -51.17,2.08 -76.83,3.08 -23.18,0.91 -46.37,1.81 -69.65,2.66 -25.33,0.93 -50.74,1.81 -76.16,2.69 -23.6,0.81 -47.19,1.63 -70.89,2.39 -25.69,0.83 -51.5,1.6 -77.31,2.36 -23.18,0.69 -46.35,1.4 -69.63,2.04 -27.33,0.75 -54.78,1.43 -82.23,2.12 -22.41,0.56 -44.78,1.14 -67.27,1.65 -29.1,0.66 -58.33,1.25 -87.55,1.84 -20.32,0.41 -40.59,0.85 -60.97,1.23 -32.23,0.6 -64.61,1.09 -96.98,1.59 -18.3,0.28 -36.54,0.6 -54.88,0.85 -33.24,0.46 -66.62,0.81 -100,1.17 -17.76,0.19 -35.42,0.43 -53.21,0.59 -33.82,0.31 -67.8,0.51 -101.76,0.72 -17.62,0.11 -35.17,0.27 -52.83,0.35 -51.13,0.26 -102.48,0.36 -153.95,0.36 51.47,0 102.82,-0.1 153.95,-0.36"/>
  <path class="fil0 str0" d="M14861.52 9443.02c-54.65,212.98 -488.83,-3783.7 2441.65,-5806.9m-3542.16 5893.98c-71.79,853.25 -350.95,-5457.97 3260.96,-6801.49 793.96,-295.33 861.91,665.53 0.12,1115.22"/>
  <path class="fil1 str1" d="M5440.33 10222.85c-65.48,51.32 -60.17,129.19 19.47,330.93 70.79,178.74 109.72,221.21 203.51,221.21 65.48,0 138.04,-72.56 138.04,-138.04 0,-60.17 -122.11,-362.78 -164.58,-412.34 -46.01,-49.55 -132.73,-51.32 -196.43,-1.77l-0.01 0.01z"/>
  <path class="fil1 str1" d="M6134.21 11570.66c-81.9,79.85 -67.57,161.75 53.24,317.37 503.69,647.02 1222.38,1175.28 1961.54,1441.47 159.71,57.33 206.8,55.28 284.6,-14.33 53.24,-49.14 59.39,-147.42 14.33,-212.95 -16.37,-24.57 -114.66,-75.76 -223.18,-118.75 -614.26,-237.52 -1195.76,-642.93 -1592.98,-1111.81 -288.71,-339.89 -300.99,-352.18 -378.8,-352.18 -47.09,0 -85.99,16.38 -118.75,51.19l0 -0.01z"/>
  <path class="fil1 str1" d="M7577.76 1889.48c-116.24,118.88 -100.39,211.35 68.69,401.56 192.86,216.63 303.81,486.1 303.81,737.08 0,174.36 -58.12,306.45 -216.63,494.02 -372.51,446.48 -435.91,985.42 -177.01,1503.23 87.19,171.72 266.84,377.78 338.17,383.07 161.15,10.57 266.83,-71.33 266.83,-208.71 0,-66.04 -31.7,-132.09 -118.89,-248.33 -142.66,-190.21 -184.92,-317.02 -184.92,-562.72 0,-227.2 73.97,-396.28 277.39,-647.26 221.92,-272.11 250.98,-356.65 250.98,-713.3 0,-282.68 -5.29,-317.02 -84.54,-509.88 -153.23,-367.22 -430.62,-705.38 -578.56,-705.38 -39.63,0 -100.4,31.7 -145.31,76.62l-0.01 0z"/>
  <path class="fil1 str1" d="M12433.5 2087.62c-23.77,18.49 -58.12,71.33 -73.97,118.88 -31.7,92.46 -23.78,110.96 195.5,401.56 163.79,216.64 235.12,412.13 237.77,631.41 0,195.5 -39.63,290.6 -195.5,478.18 -433.27,523.08 -475.54,1130.71 -116.24,1672.29 163.79,245.69 314.38,309.1 451.75,190.22 110.96,-95.11 100.4,-206.07 -36.98,-388.36 -145.31,-190.21 -195.5,-338.16 -198.14,-565.35 0,-235.12 73.97,-409.49 282.68,-663.11 317.02,-383.07 354.01,-818.97 116.24,-1323.57 -87.19,-184.93 -280.04,-454.4 -383.07,-536.3 -76.62,-60.76 -211.35,-68.69 -280.04,-15.85z"/>
  <path class="fil1 str1" d="M9995.07 3197.2c-95.11,42.27 -153.23,169.08 -118.88,261.54 13.21,31.7 71.33,116.24 134.73,190.22 214,256.26 340.8,604.98 301.18,824.26 -23.78,134.74 -76.62,232.48 -208.7,391 -380.43,457.04 -446.48,998.62 -179.65,1527 76.62,150.58 232.48,332.87 319.66,364.57 87.19,34.34 235.13,-34.34 272.11,-126.81 34.35,-95.1 15.86,-161.15 -84.54,-287.96 -174.36,-219.28 -245.69,-470.25 -206.06,-723.87 29.06,-179.65 87.18,-293.24 266.83,-512.52 256.25,-311.74 330.23,-604.99 245.69,-982.77 -23.78,-116.24 -92.47,-298.53 -147.95,-409.49 -95.11,-182.3 -303.81,-462.33 -377.79,-501.96 -71.33,-42.27 -140.01,-44.91 -216.63,-13.21z"/>
  <rect class="fil2" transform="matrix(0.63685 0.129257 -0.100867 0.816094 14103 7061.85)" width="1102.55" height="1423.43" rx="551.28" ry="551.28"/>
 </g>
</svg>
