<?xml version="1.0" encoding="UTF-8"?>
<!DOCTYPE svg PUBLIC "-//W3C//DTD SVG 1.1//EN" "http://www.w3.org/Graphics/SVG/1.1/DTD/svg11.dtd">
<!-- Creator: CorelDRAW -->
<svg xmlns="http://www.w3.org/2000/svg" xml:space="preserve" width="25.4mm" height="25.4mm" version="1.1" style="shape-rendering:geometricPrecision; text-rendering:geometricPrecision; image-rendering:optimizeQuality; fill-rule:evenodd; clip-rule:evenodd"
viewBox="0 0 2540 2540"
 xmlns:xlink="http://www.w3.org/1999/xlink"
 xmlns:xodm="http://www.corel.com/coreldraw/odm/2003">
 <defs>
  <style type="text/css">
   <![CDATA[
    .str0 {stroke:white;stroke-width:42.33;stroke-miterlimit:22.9256}
    .fil0 {fill:none}
   ]]>
  </style>
 </defs>
 <g id="Слой_x0020_1">
  <metadata id="CorelCorpID_0Corel-Layer"/>
  <g id="_2019796564496">
   <path class="fil0 str0" d="M1203.52 1450.96c-7.94,0 -15.85,-0.02 -23.74,-0.06 -2.72,-0.01 -5.43,-0.03 -8.14,-0.05 -5.24,-0.03 -10.48,-0.06 -15.69,-0.11l-8.2 -0.09c-5.15,-0.06 -10.3,-0.11 -15.43,-0.18 -2.81,-0.04 -5.61,-0.09 -8.42,-0.13 -5.01,-0.08 -10.01,-0.16 -14.99,-0.25 -3.14,-0.05 -6.26,-0.12 -9.39,-0.19 -4.5,-0.09 -9.01,-0.18 -13.5,-0.28 -3.47,-0.08 -6.93,-0.17 -10.39,-0.26 -4.22,-0.1 -8.45,-0.21 -12.66,-0.32 -3.59,-0.1 -7.16,-0.21 -10.74,-0.32 -3.98,-0.12 -7.96,-0.23 -11.92,-0.36 -3.65,-0.12 -7.28,-0.24 -10.92,-0.37 -3.93,-0.13 -7.85,-0.27 -11.76,-0.41l-10.71 -0.41c-3.96,-0.16 -7.92,-0.32 -11.87,-0.48l-10.51 -0.45 -11.66 -0.52 -10.72 -0.51c-3.7,-0.18 -7.4,-0.37 -11.08,-0.56l-11.01 -0.57c-3.74,-0.2 -7.46,-0.41 -11.18,-0.62 -3.33,-0.18 -6.66,-0.37 -9.97,-0.56 -3.95,-0.23 -7.87,-0.47 -11.79,-0.71 -3.39,-0.21 -6.78,-0.41 -10.15,-0.63 -3.61,-0.23 -7.2,-0.46 -10.78,-0.7l-10.59 -0.7c-3.53,-0.24 -7.04,-0.49 -10.55,-0.74 -3.45,-0.25 -6.9,-0.49 -10.34,-0.74 -3.64,-0.27 -7.26,-0.55 -10.88,-0.82 -3.3,-0.25 -6.62,-0.5 -9.91,-0.76 -3.51,-0.28 -6.99,-0.56 -10.48,-0.85 -3.41,-0.27 -6.83,-0.55 -10.22,-0.83 -3.54,-0.3 -7.05,-0.61 -10.57,-0.91 -3.12,-0.27 -6.26,-0.54 -9.37,-0.82 -3.66,-0.32 -7.28,-0.66 -10.92,-1 -3.12,-0.28 -6.27,-0.57 -9.38,-0.86 -3.17,-0.3 -6.29,-0.61 -9.44,-0.92 -3.43,-0.33 -6.89,-0.66 -10.3,-1.01 -2.89,-0.29 -59.34,-6.54 -62.22,-6.83l512.49 27.89zm-550.38 879.73l1090.58 0c22.89,0 41.63,-18.73 41.63,-41.63l0 -69.85c0,-22.9 -18.74,-41.63 -41.63,-41.63l-198.25 0 -692.8 0 -199.53 0c-22.89,0 -41.62,18.73 -41.62,41.63l0 69.85c0,22.9 18.73,41.63 41.62,41.63zm49.23 -906.29c-1.96,-0.23 -3.94,-0.45 -5.89,-0.68 -3.66,-0.43 -7.28,-0.87 -10.9,-1.31 -2.61,-0.32 -5.24,-0.64 -7.83,-0.96 -3.39,-0.42 -6.73,-0.85 -10.09,-1.27 -2.67,-0.34 -5.35,-0.68 -8,-1.03 -3.56,-0.46 -7.08,-0.93 -10.6,-1.41 -2.42,-0.32 -4.86,-0.65 -7.26,-0.97 -3.49,-0.48 -6.94,-0.97 -10.4,-1.46 -2.37,-0.33 -4.76,-0.66 -7.12,-1 -3.42,-0.49 -6.81,-0.99 -10.2,-1.5 -2.39,-0.35 -4.78,-0.7 -7.16,-1.06 -3.27,-0.49 -6.5,-0.99 -9.74,-1.49 -2.37,-0.37 -4.75,-0.74 -7.11,-1.11 -3.24,-0.51 -6.44,-1.03 -9.64,-1.55 -2.34,-0.38 -4.67,-0.76 -6.99,-1.14 -3.15,-0.52 -6.27,-1.05 -9.37,-1.58l-6.76 -1.16c-3.18,-0.55 -6.33,-1.11 -9.46,-1.67l-6.34 -1.14c-3.06,-0.55 -6.1,-1.11 -9.11,-1.68l-6.56 -1.23c-2.96,-0.57 -5.9,-1.13 -8.82,-1.71l-6.11 -1.2c-3.05,-0.61 -6.09,-1.23 -9.09,-1.84 -1.75,-0.36 -3.48,-0.72 -5.21,-1.08 -3.18,-0.66 -6.34,-1.33 -9.46,-2l-4.84 -1.06c-3.06,-0.67 -6.12,-1.34 -9.14,-2.02l-5.09 -1.16c-2.9,-0.67 -5.8,-1.34 -8.65,-2.01 -1.52,-0.36 -3,-0.72 -4.5,-1.08 -3.07,-0.74 -6.14,-1.48 -9.15,-2.23l-3.08 -0.78c-3.33,-0.83 -6.64,-1.67 -9.89,-2.52l-2.35 -0.63c-3.4,-0.89 -6.78,-1.79 -10.1,-2.7l-1.73 -0.49c-23.22,-6.41 -44.2,-13.13 -62.7,-20.11l-0.9 -0.33c-2.7,-1.03 -5.32,-2.06 -7.91,-3.1 -0.52,-0.2 -1.05,-0.4 -1.56,-0.61 -2.48,-1 -4.89,-2.01 -7.27,-3.02 -0.57,-0.24 -1.15,-0.48 -1.71,-0.72 -2.25,-0.97 -4.44,-1.95 -6.6,-2.92 -0.66,-0.3 -1.33,-0.6 -1.98,-0.9 -2.06,-0.95 -4.05,-1.9 -6.02,-2.86 -0.68,-0.32 -1.37,-0.65 -2.04,-0.98 -1.93,-0.96 -3.81,-1.92 -5.66,-2.89 -0.63,-0.33 -1.26,-0.65 -1.88,-0.98 -1.79,-0.95 -3.53,-1.92 -5.24,-2.88 -0.62,-0.35 -1.25,-0.7 -1.86,-1.06 -1.66,-0.96 -3.27,-1.92 -4.84,-2.88 -0.58,-0.36 -1.16,-0.72 -1.73,-1.08 -1.53,-0.96 -3.02,-1.92 -4.46,-2.89 -0.54,-0.37 -1.09,-0.74 -1.62,-1.11 -1.42,-0.98 -2.79,-1.96 -4.12,-2.94 -0.47,-0.36 -0.94,-0.71 -1.4,-1.06 -1.31,-1 -2.58,-2 -3.79,-3.01 -0.43,-0.35 -0.83,-0.7 -1.24,-1.05 -1.2,-1.02 -2.36,-2.04 -3.46,-3.07 -0.35,-0.33 -0.68,-0.66 -1.02,-0.98 -1.09,-1.05 -2.15,-2.1 -3.13,-3.16 -0.3,-0.31 -0.57,-0.63 -0.85,-0.94 -0.97,-1.08 -1.91,-2.16 -2.77,-3.24 -0.23,-0.29 -0.44,-0.58 -0.66,-0.87 -0.86,-1.11 -1.68,-2.22 -2.42,-3.34 -0.17,-0.25 -0.3,-0.5 -0.46,-0.75 -0.75,-1.17 -1.46,-2.34 -2.08,-3.51 -0.08,-0.16 -0.14,-0.31 -0.22,-0.47 -0.65,-1.27 -1.25,-2.54 -1.75,-3.82 -66.19,-160.45 885.26,-186.31 940.24,-186.42 184.88,-0.39 357.3,9.31 502.82,26.28m0 0c48.86,5.69 94.68,12.2 136.93,19.43m0 0c6.59,1.13 13.12,2.27 19.54,3.43 -6.42,-1.16 -12.95,-2.3 -19.54,-3.43zm19.54 3.43c33.94,6.15 65.41,12.77 94.05,19.8l-94.05 -19.8zm94.05 19.8c118.92,29.21 189.43,65.56 189.43,104.77 0,6.8 -4.52,12.71 0,12.71 1.17,18.22 1.84,36.57 1.84,55.08 0,378.58 -249.83,702.18 -602.66,832.54m-692.8 0c-352.83,-130.36 -602.66,-453.96 -602.66,-832.54 0,-47.02 10.01,-74.94 10.01,-69.01 0,-5.93 -10.01,21.99 -10.01,69.01 0,-47.02 10.01,-74.94 10.01,-69.01m1879.54 21.8c-0.99,1.05 -9.05,11.18 -10.14,12.23 -0.34,0.32 -0.67,0.65 -1.02,0.98 -1.1,1.03 -2.26,2.05 -3.46,3.07 -0.41,0.35 -0.81,0.7 -1.24,1.05 -1.21,1.01 -2.48,2.01 -3.79,3.01 -0.46,0.35 -0.93,0.7 -1.41,1.06 -1.32,0.98 -2.69,1.96 -4.11,2.94l-1.62 1.11c-1.45,0.97 -2.93,1.93 -4.46,2.89 -0.57,0.36 -1.15,0.72 -1.73,1.08 -1.57,0.96 -3.18,1.92 -4.84,2.88 -0.61,0.36 -1.24,0.71 -1.87,1.06 -1.7,0.96 -3.44,1.92 -5.23,2.88 -0.62,0.33 -1.25,0.65 -1.88,0.98 -1.85,0.96 -3.72,1.93 -5.66,2.89 -0.67,0.33 -1.36,0.66 -2.04,0.98 -1.97,0.96 -3.96,1.91 -6.02,2.86 -0.65,0.3 -1.32,0.6 -1.98,0.9 -2.16,0.97 -4.35,1.95 -6.6,2.92l-1.71 0.72c-2.38,1.01 -4.79,2.02 -7.27,3.02 -0.51,0.21 -1.04,0.41 -1.56,0.61 -2.59,1.04 -5.21,2.07 -7.91,3.1l-0.91 0.33c-18.45,6.97 -39.36,13.66 -62.52,20.07l-1.93 0.54c-3.29,0.9 -6.64,1.79 -10.01,2.68l-2.42 0.64c-3.24,0.85 -6.55,1.69 -9.88,2.52l-3.08 0.78c-3.01,0.75 -6.08,1.49 -9.15,2.23 -1.5,0.36 -2.98,0.72 -4.5,1.08 -2.85,0.67 -5.75,1.34 -8.65,2.01 -1.7,0.38 -3.38,0.77 -5.09,1.16 -3.04,0.69 -6.12,1.36 -9.21,2.04l-4.73 1.03c-3.14,0.67 -6.32,1.34 -9.52,2.01l-5.19 1.08c-3,0.62 -6.04,1.23 -9.09,1.84l-6.1 1.2c-2.93,0.58 -5.89,1.15 -8.86,1.71l-6.52 1.23c-3.01,0.57 -13.92,2.54 -17.04,3.11 81.15,-3.33 302.98,-79.22 281.95,-104.51zm-281.95 104.51c-2.63,0.46 -5.26,0.93 -7.92,1.39l-6.67 1.14c-3.12,0.53 -6.26,1.06 -9.43,1.59 -2.3,0.38 -4.63,0.76 -6.96,1.14 -3.22,0.52 -6.44,1.04 -9.7,1.56 -2.32,0.36 -4.67,0.72 -7.01,1.09 -3.26,0.5 -6.52,1.01 -9.81,1.5 -2.37,0.36 -4.77,0.71 -7.16,1.06 -3.38,0.5 -6.77,1.01 -10.19,1.5 -2.36,0.34 -4.75,0.67 -7.12,1 -3.46,0.49 -6.91,0.98 -10.4,1.46 -2.41,0.32 -4.84,0.65 -7.26,0.97 -3.52,0.48 -7.04,0.95 -10.6,1.41 -2.68,0.35 -5.41,0.69 -8.11,1.04 -3.31,0.42 -6.61,0.85 -9.95,1.26 -2.64,0.33 -5.32,0.65 -7.99,0.97 -3.58,0.44 -7.15,0.87 -10.77,1.3 -2.02,0.24 -4.08,0.47 -6.12,0.7 -4.17,0.49 -8.34,0.97 -12.55,1.45 4.21,-0.48 8.38,-0.96 12.55,-1.45l153.17 -22.08zm-159.45 22.81l-10.18 1.09m0 0l-1.5 0.16m0 0c-12.55,1.35 -30.8,3.31 -32.67,3.5 -3.42,0.34 -6.88,0.67 -10.32,1.01 -3.15,0.31 -6.29,0.62 -9.46,0.92 -3.08,0.29 -6.18,0.57 -9.28,0.86 -3.66,0.33 -7.31,0.67 -11,1 -3.12,0.28 -6.26,0.55 -9.4,0.82 -3.51,0.3 -7.01,0.61 -10.54,0.91 -3.38,0.28 -6.78,0.55 -10.17,0.83 -3.52,0.28 -7.02,0.57 -10.56,0.85 -3.27,0.26 -6.56,0.51 -9.84,0.76 -3.63,0.27 -7.27,0.55 -10.93,0.82 -3.44,0.25 -6.9,0.49 -10.36,0.74 -3.5,0.25 -7,0.5 -10.52,0.74 -3.52,0.24 -7.05,0.47 -10.59,0.7 -3.59,0.24 -7.18,0.48 -10.78,0.7 -3.37,0.22 -6.74,0.42 -10.12,0.63 -3.94,0.24 -7.88,0.48 -11.84,0.71l-9.93 0.56c-3.73,0.21 -7.46,0.42 -11.21,0.62l-11 0.57 -11.07 0.56 -10.74 0.51 -11.64 0.52 -10.53 0.45c-3.94,0.17 -7.89,0.32 -11.84,0.48 -3.58,0.14 -7.15,0.28 -10.74,0.41 -3.91,0.14 -7.83,0.28 -11.75,0.41 -3.63,0.13 -7.27,0.25 -10.92,0.37 -3.97,0.13 -7.94,0.25 -11.92,0.36 -3.58,0.11 -7.15,0.22 -10.74,0.32 -4.21,0.11 -8.45,0.22 -12.68,0.32 -3.45,0.09 -6.9,0.18 -10.37,0.26 -4.49,0.1 -8.99,0.19 -13.5,0.28 -3.13,0.07 -6.25,0.13 -9.4,0.19 -4.97,0.09 -9.96,0.17 -14.95,0.25 -2.82,0.04 -5.63,0.09 -8.46,0.13 -5.12,0.07 -10.27,0.12 -15.42,0.18 -2.74,0.03 -5.46,0.07 -8.2,0.09 -5.22,0.05 -10.45,0.08 -15.69,0.11 -2.72,0.02 -5.42,0.04 -8.15,0.05 -7.88,0.05 -15.8,0.06 -23.73,0.06 7.93,0 15.85,-0.01 23.73,-0.06"/>
   <path class="fil0 str0" d="M1859.18 1402.06c-8.43,32.83 -75.37,-583.36 376.44,-895.29m-546.11 908.71c-11.07,131.55 -54.11,-841.49 502.76,-1048.62 122.41,-45.54 132.89,102.6 0.02,171.94"/>
   <path class="fil0 str0" d="M406.66 1522.29c-10.1,7.91 -9.28,19.91 3,51.02 10.92,27.56 16.92,34.1 31.38,34.1 10.09,0 21.28,-11.18 21.28,-21.28 0,-9.28 -18.83,-55.93 -25.37,-63.57 -7.1,-7.64 -20.47,-7.91 -30.29,-0.27l0 0z"/>
   <path class="fil0 str0" d="M513.64 1730.09c-12.63,12.31 -10.42,24.93 8.21,48.93 77.65,99.75 188.46,181.2 302.42,222.24 24.62,8.84 31.88,8.52 43.88,-2.21 8.21,-7.58 9.15,-22.73 2.21,-32.83 -2.53,-3.79 -17.68,-11.68 -34.41,-18.31 -94.71,-36.62 -184.36,-99.13 -245.6,-171.42 -44.51,-52.4 -46.41,-54.29 -58.4,-54.29 -7.26,0 -13.26,2.52 -18.31,7.89l0 0z"/>
   <path class="fil0 str0" d="M736.2 237.48c-17.92,18.33 -15.48,32.59 10.59,61.91 29.73,33.4 46.84,74.95 46.84,113.64 0,26.88 -8.96,47.25 -33.4,76.17 -57.43,68.84 -67.21,151.93 -27.29,231.76 13.44,26.48 41.14,58.25 52.14,59.06 24.84,1.63 41.14,-11 41.14,-32.18 0,-10.18 -4.89,-20.36 -18.33,-38.28 -22,-29.33 -28.51,-48.88 -28.51,-86.76 0,-35.03 11.4,-61.1 42.76,-99.79 34.22,-41.96 38.7,-54.99 38.7,-109.98 0,-43.58 -0.82,-48.87 -13.04,-78.61 -23.62,-56.62 -66.39,-108.75 -89.2,-108.75 -6.11,0 -15.47,4.89 -22.4,11.81l0 0z"/>
   <path class="fil0 str0" d="M1484.84 268.03c-3.67,2.85 -8.96,11 -11.41,18.33 -4.88,14.25 -3.66,17.11 30.14,61.91 25.26,33.4 36.25,63.54 36.66,97.35 0,30.14 -6.11,44.8 -30.14,73.72 -66.8,80.65 -73.31,174.33 -17.92,257.83 25.25,37.88 48.47,47.65 69.65,29.33 17.11,-14.67 15.48,-31.78 -5.7,-59.88 -22.41,-29.33 -30.14,-52.14 -30.55,-87.16 0,-36.25 11.4,-63.14 43.58,-102.24 48.88,-59.06 54.58,-126.26 17.92,-204.06 -13.44,-28.51 -43.17,-70.06 -59.06,-82.69 -11.81,-9.36 -32.58,-10.59 -43.17,-2.44z"/>
   <path class="fil0 str0" d="M1108.89 439.1c-14.66,6.52 -23.62,26.07 -18.33,40.32 2.04,4.89 11,17.93 20.77,29.33 33,39.51 52.55,93.27 46.44,127.08 -3.67,20.78 -11.81,35.85 -32.18,60.29 -58.65,70.46 -68.83,153.96 -27.7,235.42 11.82,23.22 35.85,51.32 49.29,56.21 13.44,5.29 36.25,-5.29 41.95,-19.55 5.3,-14.66 2.45,-24.85 -13.03,-44.4 -26.88,-33.81 -37.88,-72.5 -31.77,-111.6 4.48,-27.7 13.44,-45.21 41.14,-79.02 39.5,-48.06 50.91,-93.27 37.88,-151.52 -3.67,-17.92 -14.26,-46.03 -22.81,-63.13 -14.67,-28.11 -46.84,-71.28 -58.25,-77.39 -11,-6.52 -21.59,-6.93 -33.4,-2.04z"/>
   <path class="fil0 str0" d="M1796.36 1045.92l0 0c29.89,6.07 50.29,42.05 45.56,80.35l-4.99 40.37c-4.74,38.31 -32.81,64.45 -62.7,58.38l0 0c-29.89,-6.06 -50.29,-42.05 -45.56,-80.35l4.99 -40.37c4.74,-38.3 32.81,-64.44 62.7,-58.38z"/>
  </g>
 </g>
</svg>
