<?xml version="1.0" encoding="UTF-8"?>
<!DOCTYPE svg PUBLIC "-//W3C//DTD SVG 1.1//EN" "http://www.w3.org/Graphics/SVG/1.1/DTD/svg11.dtd">
<!-- Creator: CorelDRAW -->
<svg xmlns="http://www.w3.org/2000/svg" xml:space="preserve" width="3.3866mm" height="3.3866mm" version="1.1" style="shape-rendering:geometricPrecision; text-rendering:geometricPrecision; image-rendering:optimizeQuality; fill-rule:evenodd; clip-rule:evenodd"
viewBox="0 0 338.66 338.66"
 xmlns:xlink="http://www.w3.org/1999/xlink"
 xmlns:xodm="http://www.corel.com/coreldraw/odm/2003">
 <defs>
  <style type="text/css">
   <![CDATA[
    .str0 {stroke:#FEFEFE;stroke-width:5.08;stroke-miterlimit:22.9256}
    .fil0 {fill:none}
   ]]>
  </style>
 </defs>
 <g id="Слой_x0020_1">
  <metadata id="CorelCorpID_0Corel-Layer"/>
  <g id="_1828189643360">
   <path class="fil0 str0" d="M165.1 49.48c-8.4,0 -15.2,6.81 -15.2,15.21 0,4.47 1.92,8.49 4.99,11.28 -11.76,2.08 -22.82,7.21 -32.93,14.73 2.79,0.98 5.89,1.85 9.24,2.57 11.49,2.48 25.64,3.42 39.58,3.01 13.95,-0.41 27.74,-2.17 38.53,-4.87 0.83,-0.2 1.64,-0.43 2.44,-0.66 -10.97,-8.17 -23.06,-13.53 -35.96,-15.24 2.78,-2.76 4.52,-6.59 4.52,-10.82 0,-8.4 -6.81,-15.21 -15.21,-15.21zm-55.28 51.83c-3.09,3.06 -4.92,5.2 -7.78,8.71 17.93,6.45 40.18,10.85 64.77,10.85 24.9,0 47.34,-3.76 65.13,-10.38 -2.81,-3.48 -5.73,-6.76 -8.77,-9.8 -3.31,1.16 -6.91,2.16 -10.77,3.13 -11.98,2.99 -26.48,4.79 -41.24,5.23 -14.76,0.44 -29.73,-0.51 -42.66,-3.29 -6.39,-1.38 -12.35,-3.14 -17.55,-5.58l-1.13 1.13zm-68.02 0.09c-8.42,-0.13 -17.07,2.69 -23.46,9.43 -6.37,6.74 -10.24,16.84 -11.14,30.41 -1.01,15.05 0.7,26.17 4.76,34.7 4.06,8.54 10.51,14.09 17.29,17.91 6.7,3.78 13.62,6.25 20.14,9.02 -0.95,-4.67 -1.55,-9.61 -1.81,-14.81 -4.45,-1.74 -8.6,-3.37 -12.08,-5.33 -5.33,-2.99 -9.22,-6.38 -12.02,-12.27 -2.8,-5.88 -4.45,-14.69 -3.54,-28.36 0.77,-11.6 3.9,-18.53 7.66,-22.5 3.75,-3.96 8.34,-5.52 14,-5.44 7.07,0.11 15.48,3.48 22.56,8.35 2.18,-3.76 4.53,-7.41 7.05,-10.96 -8.69,-6.06 -19.05,-9.99 -29.42,-10.15l0.01 0zm241.99 19.07c-6.92,14.34 9.13,50.43 -13.4,51.99 -11.72,-0.26 -16.33,2.15 -21.32,6.94 -5,4.79 -7.77,11.92 -8.24,19.65 -0.48,7.74 1.42,15.88 4.97,21.83 2.32,3.9 5.14,6.78 8.46,8.47l0 0c19.56,1.75 55.77,-1.11 58.59,-38.27 2.1,-27.62 -21.15,-76.15 10.63,-61.3 -2.46,-7.76 0.69,-13.14 8.26,-14.4 -6.72,-4.54 -15.24,-8.72 -25.03,-9.47 -7.5,0.15 -18.23,5.67 -22.92,14.56zm-200.06 -4.3c-14.52,19.43 -23.51,41.68 -23.51,66.46 0,29.62 11.24,47.48 30.05,59.2 18.81,11.71 45.96,16.64 76.53,16.64 30.57,0 57.82,-4.92 76.74,-16.64 1.1,-0.68 2.18,-1.39 3.22,-2.1 -4.94,-2.99 -8.99,-7.35 -11.95,-12.3 -5.05,-8.5 -7.37,-18.89 -6.74,-29.16 0.65,-10.27 4.35,-20.58 12.15,-28.07 6.83,-6.55 16.71,-10.51 28.89,-10.4 0.67,0.01 1.34,0.04 2.03,0.07 -3.77,-16.1 -11.28,-31.06 -21.05,-43.59 -21.69,11.34 -50.63,17.35 -83.27,17.35 -32.82,0 -61.6,-7.28 -83.09,-17.46zm154.48 142.8c-20.3,8.93 -45,12.26 -71.42,12.26 -26.27,0 -50.79,-3.29 -70.95,-12.12 3.49,8.09 9.22,13.98 16.8,18.6 13.1,7.97 32.37,11.47 54.2,11.47 21.84,0 41.2,-3.5 54.39,-11.48 5.17,-3.13 16.98,-18.73 16.98,-18.73z"/>
  </g>
 </g>
</svg>
